<svg width="122" height="41" viewBox="0 0 122 41" fill="none" xmlns="http://www.w3.org/2000/svg">
<rect x="0.50625" y="0.50625" width="120.488" height="39.4875" rx="6.58125" fill="#141414"/>
<rect x="0.50625" y="0.50625" width="120.488" height="39.4875" rx="6.58125" stroke="#A6A6A6" stroke-width="1.0125"/>
<path d="M25.0784 20.5547C25.1004 18.8527 26.0144 17.2422 27.4645 16.3507C26.5497 15.0443 25.0175 14.216 23.4234 14.1661C21.7232 13.9876 20.0749 15.1835 19.2085 15.1835C18.3253 15.1835 16.9913 14.1838 15.5549 14.2134C13.6825 14.2739 11.937 15.3384 11.026 16.9753C9.06786 20.3656 10.5285 25.3482 12.4042 28.0886C13.3427 29.4305 14.4396 30.9295 15.8747 30.8763C17.2791 30.8181 17.8036 29.9808 19.4989 29.9808C21.1784 29.9808 21.6705 30.8763 23.1348 30.8425C24.6417 30.8181 25.5912 29.4947 26.4968 28.14C27.1711 27.1839 27.6899 26.1271 28.0342 25.0089C26.2632 24.2598 25.0805 22.4776 25.0784 20.5547Z" fill="white"/>
<path d="M22.3126 12.3638C23.1343 11.3775 23.5391 10.1096 23.4411 8.82959C22.1858 8.96144 21.0262 9.5614 20.1934 10.5099C19.3791 11.4367 18.9553 12.6822 19.0354 13.9134C20.2912 13.9263 21.5257 13.3426 22.3126 12.3638Z" fill="white"/>
<path d="M82.5448 19.4409V21.7605H81.0908V23.2817H82.5448V28.4505C82.5448 30.2155 83.3432 30.9215 85.3519 30.9215C85.7049 30.9215 86.0411 30.8794 86.3352 30.829V29.3246C86.0831 29.3498 85.9234 29.3666 85.6461 29.3666C84.7468 29.3666 84.3518 28.9464 84.3518 27.9883V23.2817H86.3352V21.7605H84.3518V19.4409H82.5448Z" fill="white"/>
<path d="M91.4522 31.0475C94.1249 31.0475 95.7638 29.2574 95.7638 26.2906C95.7638 23.3406 94.1165 21.542 91.4522 21.542C88.7796 21.542 87.1323 23.3406 87.1323 26.2906C87.1323 29.2574 88.7712 31.0475 91.4522 31.0475ZM91.4522 29.4423C89.8806 29.4423 88.9981 28.2908 88.9981 26.2906C88.9981 24.3071 89.8806 23.1473 91.4522 23.1473C93.0155 23.1473 93.9064 24.3071 93.9064 26.2906C93.9064 28.2824 93.0155 29.4423 91.4522 29.4423Z" fill="white"/>
<path d="M97.166 30.871H98.973V25.4669C98.973 24.181 99.9395 23.3154 101.309 23.3154C101.629 23.3154 102.167 23.3742 102.318 23.4246V21.6429C102.125 21.5924 101.78 21.5672 101.511 21.5672C100.318 21.5672 99.3007 22.2228 99.0402 23.1221H98.9057V21.7185H97.166V30.871Z" fill="white"/>
<path d="M106.805 23.08C108.141 23.08 109.015 24.0129 109.057 25.4501H104.435C104.535 24.0213 105.468 23.08 106.805 23.08ZM109.049 28.4001C108.712 29.1145 107.964 29.5095 106.872 29.5095C105.426 29.5095 104.493 28.4926 104.435 26.8873V26.7864H110.898V26.1561C110.898 23.2817 109.36 21.542 106.813 21.542C104.233 21.542 102.594 23.3994 102.594 26.3242C102.594 29.249 104.199 31.0475 106.821 31.0475C108.914 31.0475 110.377 30.039 110.788 28.4001H109.049Z" fill="white"/>
<path d="M70.6949 27.4911C70.8343 29.7386 72.7072 31.1759 75.4947 31.1759C78.4739 31.1759 80.338 29.6689 80.338 27.2647C80.338 25.3744 79.2753 24.329 76.6968 23.728L75.3118 23.3882C73.6741 23.005 73.012 22.491 73.012 21.5938C73.012 20.4613 74.04 19.7209 75.5818 19.7209C77.0453 19.7209 78.0557 20.4439 78.2387 21.6025H80.1377C80.0244 19.4857 78.1603 17.9961 75.6079 17.9961C72.864 17.9961 71.0346 19.4857 71.0346 21.7244C71.0346 23.5712 72.0712 24.6688 74.3448 25.2001L75.9651 25.5921C77.6289 25.9841 78.3606 26.5591 78.3606 27.5173C78.3606 28.6323 77.2108 29.4424 75.6428 29.4424C73.9615 29.4424 72.7943 28.6846 72.6288 27.4911H70.6949Z" fill="white"/>
<path d="M51.9765 21.5672C50.7326 21.5672 49.6568 22.1891 49.1021 23.2313H48.9677V21.7185H47.2279V33.9135H49.0349V29.4843H49.1778C49.6568 30.4508 50.6906 31.0223 51.9933 31.0223C54.3045 31.0223 55.7753 29.1985 55.7753 26.2906C55.7753 23.3826 54.3045 21.5672 51.9765 21.5672ZM51.4638 29.4002C49.951 29.4002 49.0013 28.2068 49.0013 26.299C49.0013 24.3827 49.951 23.1893 51.4722 23.1893C53.0018 23.1893 53.9179 24.3575 53.9179 26.2906C53.9179 28.232 53.0018 29.4002 51.4638 29.4002Z" fill="white"/>
<path d="M62.0982 21.5672C60.8544 21.5672 59.7786 22.1891 59.2239 23.2313H59.0894V21.7185H57.3497V33.9135H59.1566V29.4843H59.2995C59.7786 30.4508 60.8123 31.0223 62.115 31.0223C64.4263 31.0223 65.8971 29.1985 65.8971 26.2906C65.8971 23.3826 64.4263 21.5672 62.0982 21.5672ZM61.5856 29.4002C60.0727 29.4002 59.123 28.2068 59.123 26.299C59.123 24.3827 60.0727 23.1893 61.594 23.1893C63.1236 23.1893 64.0397 24.3575 64.0397 26.2906C64.0397 28.232 63.1236 29.4002 61.5856 29.4002Z" fill="white"/>
<path d="M43.9859 30.871H46.0591L41.5207 18.301H39.4213L34.8828 30.871H36.8864L38.0449 27.5347H42.836L43.9859 30.871ZM40.3708 20.5833H40.5189L42.3395 25.897H38.5415L40.3708 20.5833Z" fill="white"/>
<path d="M36.0967 8.81985V14.8837H38.2861C40.093 14.8837 41.1394 13.7701 41.1394 11.8329C41.1394 9.92504 40.0846 8.81985 38.2861 8.81985H36.0967ZM37.038 9.67711H38.181C39.4375 9.67711 40.1813 10.4755 40.1813 11.8455C40.1813 13.2364 39.4501 14.0265 38.181 14.0265H37.038V9.67711Z" fill="white"/>
<path d="M44.3441 14.972C45.6804 14.972 46.4998 14.0769 46.4998 12.5935C46.4998 11.1185 45.6762 10.2192 44.3441 10.2192C43.0077 10.2192 42.1841 11.1185 42.1841 12.5935C42.1841 14.0769 43.0035 14.972 44.3441 14.972ZM44.3441 14.1693C43.5582 14.1693 43.117 13.5936 43.117 12.5935C43.117 11.6017 43.5582 11.0218 44.3441 11.0218C45.1257 11.0218 45.5711 11.6017 45.5711 12.5935C45.5711 13.5894 45.1257 14.1693 44.3441 14.1693Z" fill="white"/>
<path d="M53.4781 10.3074H52.5746L51.7594 13.7995H51.6879L50.7466 10.3074H49.881L48.9397 13.7995H48.8724L48.053 10.3074H47.1369L48.3976 14.8837H49.3263L50.2676 11.5135H50.339L51.2845 14.8837H52.2216L53.4781 10.3074Z" fill="white"/>
<path d="M54.5186 14.8837H55.4221V12.2069C55.4221 11.4925 55.8465 11.047 56.5147 11.047C57.1828 11.047 57.5022 11.4126 57.5022 12.148V14.8837H58.4057V11.9211C58.4057 10.8327 57.8426 10.2192 56.8214 10.2192C56.1323 10.2192 55.6784 10.526 55.4557 11.0344H55.3885V10.3074H54.5186V14.8837Z" fill="white"/>
<path d="M59.8286 14.8837H60.7321V8.52148H59.8286V14.8837Z" fill="white"/>
<path d="M64.13 14.972C65.4664 14.972 66.2858 14.0769 66.2858 12.5935C66.2858 11.1185 65.4621 10.2192 64.13 10.2192C62.7937 10.2192 61.9701 11.1185 61.9701 12.5935C61.9701 14.0769 62.7895 14.972 64.13 14.972ZM64.13 14.1693C63.3442 14.1693 62.903 13.5936 62.903 12.5935C62.903 11.6017 63.3442 11.0218 64.13 11.0218C64.9116 11.0218 65.3571 11.6017 65.3571 12.5935C65.3571 13.5894 64.9116 14.1693 64.13 14.1693Z" fill="white"/>
<path d="M68.9778 14.1988C68.4861 14.1988 68.1289 13.9592 68.1289 13.5474C68.1289 13.144 68.4147 12.9297 69.045 12.8876L70.1628 12.8162V13.1986C70.1628 13.7659 69.6585 14.1988 68.9778 14.1988ZM68.7466 14.9594C69.3476 14.9594 69.8476 14.6988 70.1208 14.2408H70.1922V14.8837H71.0621V11.7572C71.0621 10.7907 70.4149 10.2192 69.2677 10.2192C68.2298 10.2192 67.4902 10.7235 67.3977 11.5093H68.2718C68.3726 11.1857 68.7214 11.0008 69.2257 11.0008C69.8434 11.0008 70.1628 11.274 70.1628 11.7572V12.1522L68.9231 12.2237C67.8347 12.2909 67.2212 12.7658 67.2212 13.5894C67.2212 14.4257 67.8642 14.9594 68.7466 14.9594Z" fill="white"/>
<path d="M74.1281 14.9594C74.7584 14.9594 75.2921 14.661 75.5652 14.1609H75.6367V14.8837H76.5023V8.52148H75.5989V11.0344H75.5316C75.2837 10.5302 74.7542 10.2318 74.1281 10.2318C72.9724 10.2318 72.2286 11.1479 72.2286 12.5935C72.2286 14.0433 72.964 14.9594 74.1281 14.9594ZM74.3844 11.0428C75.1408 11.0428 75.6157 11.6438 75.6157 12.5977C75.6157 13.5558 75.145 14.1483 74.3844 14.1483C73.6196 14.1483 73.1615 13.5642 73.1615 12.5935C73.1615 11.6312 73.6238 11.0428 74.3844 11.0428Z" fill="white"/>
<path d="M82.3612 14.972C83.6975 14.972 84.5169 14.0769 84.5169 12.5935C84.5169 11.1185 83.6933 10.2192 82.3612 10.2192C81.0248 10.2192 80.2012 11.1185 80.2012 12.5935C80.2012 14.0769 81.0206 14.972 82.3612 14.972ZM82.3612 14.1693C81.5753 14.1693 81.1341 13.5936 81.1341 12.5935C81.1341 11.6017 81.5753 11.0218 82.3612 11.0218C83.1428 11.0218 83.5882 11.6017 83.5882 12.5935C83.5882 13.5894 83.1428 14.1693 82.3612 14.1693Z" fill="white"/>
<path d="M85.7129 14.8837H86.6164V12.2069C86.6164 11.4925 87.0408 11.047 87.709 11.047C88.3771 11.047 88.6965 11.4126 88.6965 12.148V14.8837H89.6V11.9211C89.6 10.8327 89.0369 10.2192 88.0157 10.2192C87.3266 10.2192 86.8727 10.526 86.65 11.0344H86.5828V10.3074H85.7129V14.8837Z" fill="white"/>
<path d="M93.7611 9.16863V10.3285H93.0341V11.0891H93.7611V13.6735C93.7611 14.5559 94.1603 14.9089 95.1646 14.9089C95.3411 14.9089 95.5092 14.8879 95.6563 14.8627V14.1105C95.5302 14.1231 95.4504 14.1315 95.3117 14.1315C94.8621 14.1315 94.6646 13.9214 94.6646 13.4423V11.0891H95.6563V10.3285H94.6646V9.16863H93.7611Z" fill="white"/>
<path d="M96.8691 14.8837H97.7726V12.2111C97.7726 11.5177 98.1844 11.0513 98.924 11.0513C99.5627 11.0513 99.9031 11.4211 99.9031 12.1522V14.8837H100.807V11.9295C100.807 10.8411 100.206 10.2234 99.2308 10.2234C98.5416 10.2234 98.0583 10.5302 97.8356 11.0428H97.7642V8.52148H96.8691V14.8837Z" fill="white"/>
<path d="M104.066 10.9882C104.734 10.9882 105.171 11.4547 105.192 12.1733H102.881C102.931 11.4589 103.398 10.9882 104.066 10.9882ZM105.188 13.6483C105.02 14.0054 104.646 14.203 104.1 14.203C103.377 14.203 102.91 13.6945 102.881 12.8918V12.8414H106.112V12.5262C106.112 11.0891 105.343 10.2192 104.07 10.2192C102.78 10.2192 101.961 11.1479 101.961 12.6103C101.961 14.0727 102.763 14.972 104.074 14.972C105.121 14.972 105.852 14.4677 106.058 13.6483H105.188Z" fill="white"/>
</svg>
