<svg width="56" height="56" viewBox="0 0 56 56" fill="none" xmlns="http://www.w3.org/2000/svg">
<rect width="56" height="56" rx="8" fill="#357ABB"/>
<path d="M23 18C20.2386 18 18 20.2386 18 23C18 24.8507 19.0055 26.4666 20.5 27.3311V33.8431C20.5 34.6606 20.5 35.0694 20.6522 35.4369C20.8045 35.8045 21.0935 36.0935 21.6716 36.6716L23 38L25.1082 35.8918C25.2054 35.7946 25.2541 35.7459 25.2944 35.6932C25.4003 35.5547 25.4682 35.3909 25.4912 35.218C25.5 35.1522 25.5 35.0834 25.5 34.9459C25.5 34.8346 25.5 34.779 25.4941 34.7249C25.4786 34.5831 25.433 34.4463 25.3603 34.3236C25.3326 34.2768 25.2992 34.2323 25.2325 34.1433L24 32.5L24.7 31.5667C25.0965 31.038 25.2947 30.7737 25.3974 30.4658C25.5 30.1579 25.5 29.8275 25.5 29.1667V27.3311C26.9945 26.4666 28 24.8507 28 23C28 20.2386 25.7614 18 23 18Z" stroke="white" stroke-width="1.5" stroke-linejoin="round"/>
<path d="M23 23H23.009" stroke="white" stroke-width="2" stroke-linecap="round" stroke-linejoin="round"/>
<path d="M29 30H35C35.9319 30 36.3978 30 36.7654 30.1522C37.2554 30.3552 37.6448 30.7446 37.8478 31.2346C38 31.6022 38 32.0681 38 33C38 33.9319 38 34.3978 37.8478 34.7654C37.6448 35.2554 37.2554 35.6448 36.7654 35.8478C36.3978 36 35.9319 36 35 36H29" stroke="white" stroke-width="1.5" stroke-linecap="round"/>
<path d="M31 21H35C35.9319 21 36.3978 21 36.7654 21.1522C37.2554 21.3552 37.6448 21.7446 37.8478 22.2346C38 22.6022 38 23.0681 38 24C38 24.9319 38 25.3978 37.8478 25.7654C37.6448 26.2554 37.2554 26.6448 36.7654 26.8478C36.3978 27 35.9319 27 35 27H31" stroke="white" stroke-width="1.5" stroke-linecap="round"/>
</svg>
