<svg width="56" height="56" viewBox="0 0 56 56" fill="none" xmlns="http://www.w3.org/2000/svg">
<rect width="56" height="56" rx="8" fill="#357ABB"/>
<path d="M19.5182 26.3058C19.1301 25.2318 18.9361 24.6948 19.0188 24.3506C19.1093 23.9743 19.377 23.6808 19.7191 23.583C20.0319 23.4935 20.5185 23.7097 21.4917 24.1423C22.3525 24.5249 22.7829 24.7162 23.1873 24.7055C23.6326 24.6938 24.0609 24.5152 24.4016 24.1993C24.711 23.9124 24.9186 23.4551 25.3337 22.5406L26.2486 20.5253C27.0128 18.8418 27.3949 18 28 18C28.6051 18 28.9872 18.8418 29.7514 20.5253L30.6663 22.5406C31.0814 23.4551 31.289 23.9124 31.5984 24.1993C31.9391 24.5152 32.3674 24.6938 32.8127 24.7055C33.2171 24.7162 33.6475 24.5249 34.5083 24.1423C35.4815 23.7097 35.9681 23.4935 36.2809 23.583C36.623 23.6808 36.8907 23.9743 36.9812 24.3506C37.0639 24.6948 36.8699 25.2318 36.4818 26.3057L34.8138 30.9222C34.1002 32.897 33.7435 33.8844 32.9968 34.4422C32.2502 35 31.2854 35 29.3558 35H26.6442C24.7146 35 23.7498 35 23.0032 34.4422C22.2565 33.8844 21.8998 32.897 21.1862 30.9222L19.5182 26.3058Z" stroke="white" stroke-width="1.5"/>
<path d="M28 30H28.009" stroke="white" stroke-width="2" stroke-linecap="round" stroke-linejoin="round"/>
<path d="M23 38H33" stroke="white" stroke-width="1.5" stroke-linecap="round"/>
</svg>
