<svg width="42" height="41" viewBox="0 0 42 41" fill="none" xmlns="http://www.w3.org/2000/svg">
<rect x="1" y="0.5" width="40" height="40" rx="8" fill="#F1F7FC"/>
<rect x="1" y="0.5" width="40" height="40" rx="8" stroke="#357ABB"/>
<path d="M27.2186 13.8285C24.9839 12.4577 23.0335 13.0101 21.8618 13.89C21.3814 14.2508 21.1412 14.4312 20.9998 14.4312C20.8585 14.4312 20.6183 14.2508 20.1379 13.89C18.9662 13.0101 17.0157 12.4577 14.781 13.8285C11.8482 15.6274 11.1846 21.5624 17.9494 26.5695C19.2379 27.5232 19.8822 28 20.9998 28C22.1175 28 22.7617 27.5232 24.0502 26.5695C30.8151 21.5624 30.1514 15.6274 27.2186 13.8285Z" stroke="#357ABB" stroke-width="1.5" stroke-linecap="round"/>
</svg>
