<svg width="42" height="41" viewBox="0 0 42 41" fill="none" xmlns="http://www.w3.org/2000/svg">
<rect x="1" y="0.5" width="40" height="40" rx="8" fill="#F1F7FC"/>
<rect x="1" y="0.5" width="40" height="40" rx="8" stroke="#357ABB"/>
<path d="M22.6665 14.6667C22.2498 15.0834 21.4137 15.0103 20.1665 13.9804M20.1665 13.9804C20.351 13.828 20.5427 13.6549 20.7407 13.4587C22.6621 11.5547 25.2788 11.9275 26.5048 13.4587C27.0265 14.1102 28.0492 15.3595 27.5176 18.4167M20.1665 13.9804C19.982 13.828 19.7904 13.6549 19.5923 13.4587C17.6709 11.5547 15.0542 11.9275 13.8282 13.4587C12.9814 14.5162 10.8144 17.1489 16.1183 26.533C16.3379 26.9216 16.7753 27.1667 17.2465 27.1667C17.9982 27.1667 18.5856 26.5668 18.6101 25.8667C18.648 24.7805 18.858 23.5712 19.4443 23.0001" stroke="#357ABB" stroke-width="1.5" stroke-linecap="round" stroke-linejoin="round"/>
<path d="M24.3335 24.6667L24.9035 25.2366C25.0264 25.3595 25.0878 25.421 25.1622 25.4169C25.2366 25.4128 25.2909 25.3449 25.3995 25.2091L26.8332 23.4167M21.8335 23.3786V23.7003C21.8335 24.7018 21.8335 25.2026 21.9572 25.6609C22.1099 26.2269 22.3994 26.7489 22.8015 27.1831C23.127 27.5347 23.5566 27.8084 24.4159 28.3559C24.8005 28.601 24.9928 28.7236 25.1973 28.7806C25.4497 28.8509 25.7173 28.8509 25.9697 28.7806C26.1742 28.7236 26.3665 28.601 26.7511 28.3559C27.6104 27.8084 28.04 27.5347 28.3655 27.1831C28.7676 26.7489 29.0571 26.2269 29.2098 25.6609C29.3335 25.2026 29.3335 24.7018 29.3335 23.7003V23.3786C29.3335 22.7549 29.3335 22.4431 29.2153 22.1798C29.1425 22.0174 29.038 21.8703 28.9078 21.7467C28.6968 21.5462 28.3976 21.4367 27.7994 21.2177L26.571 20.7681C26.0827 20.5894 25.8385 20.5 25.5835 20.5C25.3285 20.5 25.0843 20.5894 24.596 20.7681L23.3676 21.2177C22.7694 21.4367 22.4702 21.5462 22.2592 21.7467C22.129 21.8703 22.0245 22.0174 21.9517 22.1798C21.8335 22.4431 21.8335 22.7549 21.8335 23.3786Z" stroke="#357ABB" stroke-width="1.5" stroke-linecap="round" stroke-linejoin="round"/>
</svg>
