<svg width="42" height="41" viewBox="0 0 42 41" fill="none" xmlns="http://www.w3.org/2000/svg">
<rect x="1" y="0.5" width="40" height="40" rx="8" fill="#F1F7FC"/>
<rect x="1" y="0.5" width="40" height="40" rx="8" stroke="#357ABB"/>
<path d="M19.3335 25.5L22.6668 25.5" stroke="#357ABB" stroke-width="1.5" stroke-linecap="round" stroke-linejoin="round"/>
<path d="M12.9593 21.5113C12.6651 19.5969 12.5181 18.6398 12.88 17.7912C13.2419 16.9427 14.0449 16.3621 15.6508 15.201L16.8507 14.3334C18.8484 12.889 19.8473 12.1667 20.9998 12.1667C22.1524 12.1667 23.1513 12.889 25.149 14.3334L26.3489 15.201C27.9548 16.3621 28.7578 16.9427 29.1197 17.7912C29.4816 18.6398 29.3345 19.5969 29.0403 21.5113L28.7895 23.1437C28.3724 25.8575 28.1639 27.2144 27.1907 28.0239C26.2174 28.8334 24.7946 28.8334 21.9488 28.8334H20.0508C17.2051 28.8334 15.7823 28.8334 14.809 28.0239C13.8357 27.2144 13.6272 25.8575 13.2102 23.1437L12.9593 21.5113Z" stroke="#357ABB" stroke-width="1.5" stroke-linejoin="round"/>
</svg>
