<svg width="42" height="41" viewBox="0 0 42 41" fill="none" xmlns="http://www.w3.org/2000/svg">
<rect x="1" y="0.5" width="40" height="40" rx="8" fill="#F1F7FC"/>
<rect x="1" y="0.5" width="40" height="40" rx="8" stroke="#357ABB"/>
<path d="M21.8332 16.3333C21.8332 18.1743 20.3408 19.6667 18.4998 19.6667C16.6589 19.6667 15.1665 18.1743 15.1665 16.3333C15.1665 14.4924 16.6589 13 18.4998 13C20.3408 13 21.8332 14.4924 21.8332 16.3333Z" stroke="#357ABB" stroke-width="1.5"/>
<path d="M23.5 19.6667C25.3409 19.6667 26.8333 18.1743 26.8333 16.3333C26.8333 14.4924 25.3409 13 23.5 13" stroke="#357ABB" stroke-width="1.5" stroke-linecap="round" stroke-linejoin="round"/>
<path d="M20.1665 22.1667H16.8332C14.532 22.1667 12.6665 24.0322 12.6665 26.3334C12.6665 27.2539 13.4127 28.0001 14.3332 28.0001H22.6665C23.587 28.0001 24.3332 27.2539 24.3332 26.3334C24.3332 24.0322 22.4677 22.1667 20.1665 22.1667Z" stroke="#357ABB" stroke-width="1.5" stroke-linejoin="round"/>
<path d="M25.1665 22.1667C27.4677 22.1667 29.3332 24.0322 29.3332 26.3334C29.3332 27.2539 28.587 28.0001 27.6665 28.0001H26.4165" stroke="#357ABB" stroke-width="1.5" stroke-linecap="round" stroke-linejoin="round"/>
</svg>
