<svg width="42" height="41" viewBox="0 0 42 41" fill="none" xmlns="http://www.w3.org/2000/svg">
<rect x="1" y="0.5" width="40" height="40" rx="8" fill="#F1F7FC"/>
<rect x="1" y="0.5" width="40" height="40" rx="8" stroke="#357ABB"/>
<path d="M17.9965 12.6267C19.2256 11.8652 20.2983 12.1721 20.9428 12.6609C21.207 12.8613 21.3391 12.9616 21.4168 12.9616C21.4946 12.9616 21.6267 12.8613 21.8909 12.6609C22.5353 12.1721 23.6081 11.8652 24.8372 12.6267C26.4502 13.6261 26.8152 16.9233 23.0945 19.705C22.3859 20.2349 22.0315 20.4998 21.4168 20.4998C20.8021 20.4998 20.4478 20.2349 19.7391 19.705C16.0185 16.9233 16.3834 13.6261 17.9965 12.6267Z" stroke="#357ABB" stroke-width="1.5" stroke-linecap="round"/>
<path d="M14.3335 22.1667H16.3292C16.5743 22.1667 16.8161 22.222 17.0353 22.3281L18.737 23.1514C18.9562 23.2575 19.198 23.3127 19.4431 23.3127H20.3119C21.1523 23.3127 21.8335 23.9719 21.8335 24.7851C21.8335 24.8179 21.811 24.8468 21.7783 24.8559L19.6609 25.4413C19.2811 25.5463 18.8743 25.5097 18.521 25.3388L16.7019 24.4586" stroke="#357ABB" stroke-width="1.5" stroke-linecap="round" stroke-linejoin="round"/>
<path d="M21.8335 24.25L25.6608 23.0741C26.3393 22.8627 27.0727 23.1134 27.4977 23.7019C27.805 24.1275 27.6799 24.7368 27.2322 24.9951L20.9692 28.6088C20.5709 28.8386 20.1009 28.8947 19.6628 28.7647L14.3335 27.1833" stroke="#357ABB" stroke-width="1.5" stroke-linecap="round" stroke-linejoin="round"/>
</svg>
