<svg width="20" height="20" viewBox="0 0 20 20" fill="none" xmlns="http://www.w3.org/2000/svg">
<path d="M5.8335 7.08331L8.28518 8.53284C9.71451 9.37792 10.2858 9.37792 11.7152 8.53284L14.1668 7.08331" stroke="#6F6F6F" stroke-width="1.5" stroke-linecap="round" stroke-linejoin="round"/>
<path d="M1.67964 11.2296C1.73412 13.7843 1.76136 15.0616 2.70397 16.0078C3.64657 16.9539 4.95845 16.9869 7.58219 17.0528C9.19926 17.0935 10.8004 17.0935 12.4175 17.0528C15.0412 16.9869 16.3531 16.9539 17.2957 16.0078C18.2383 15.0616 18.2656 13.7843 18.32 11.2296C18.3376 10.4082 18.3376 9.59169 18.32 8.77029C18.2656 6.21568 18.2383 4.93837 17.2957 3.99218C16.3531 3.04599 15.0412 3.01302 12.4175 2.9471C10.8004 2.90647 9.19926 2.90647 7.58219 2.94709C4.95844 3.01301 3.64657 3.04597 2.70396 3.99217C1.76136 4.93836 1.73412 6.21566 1.67964 8.77027C1.66212 9.59168 1.66212 10.4082 1.67964 11.2296Z" stroke="#6F6F6F" stroke-width="1.5" stroke-linejoin="round"/>
</svg>
