<svg width="17" height="20" viewBox="0 0 17 20" fill="none" xmlns="http://www.w3.org/2000/svg">
<path d="M3.98131 12.9013C2.80234 13.6034 -0.288863 15.0368 1.59388 16.8305C2.51359 17.7067 3.53791 18.3334 4.82572 18.3334H12.1743C13.4621 18.3334 14.4864 17.7067 15.4061 16.8305C17.2889 15.0368 14.1977 13.6034 13.0187 12.9013C10.254 11.2551 6.74599 11.2551 3.98131 12.9013Z" stroke="#6F6F6F" stroke-width="1.5" stroke-linecap="round" stroke-linejoin="round"/>
<path d="M12.25 5.41669C12.25 7.48776 10.5711 9.16669 8.5 9.16669C6.42893 9.16669 4.75 7.48776 4.75 5.41669C4.75 3.34562 6.42893 1.66669 8.5 1.66669C10.5711 1.66669 12.25 3.34562 12.25 5.41669Z" stroke="#6F6F6F" stroke-width="1.5"/>
</svg>
