<svg width="217" height="69" viewBox="0 0 217 69" fill="none" xmlns="http://www.w3.org/2000/svg">
<path d="M19.2258 10.9338C19.3759 10.8587 19.526 10.8587 19.6011 10.8587C20.3518 10.8587 20.9523 11.4592 20.9523 12.2099C20.9523 12.6603 20.8773 13.1107 20.6521 13.5611C19.7512 14.9874 18.8504 16.4137 17.8745 17.84C15.7727 20.5424 13.971 23.395 12.5447 26.4728C11.0434 29.7007 10.2176 33.2289 10.2927 36.8321C10.3678 40.5105 11.4938 44.0386 13.4455 47.1164C15.2472 50.1942 17.8745 52.5964 21.0274 54.1728C22.0783 54.6983 23.1293 55.2237 24.1802 55.7492C26.4323 56.9503 28.2339 58.7519 29.435 61.0039C30.6361 63.256 31.3117 65.7332 31.4618 68.2105C29.9604 68.6609 28.309 68.5858 26.8076 67.9852C26.5824 67.4598 26.2821 66.559 25.9068 65.5831C25.1561 63.4061 25.1561 63.4812 24.9309 62.7305C23.955 60.4785 22.6038 58.4516 20.9523 56.8002C20.652 56.4999 20.2767 56.3498 19.9764 56.65C19.8263 56.8002 19.9764 57.2506 20.1266 57.4758C20.8773 58.827 21.1025 59.5026 21.703 60.1031C22.5287 60.8538 23.6548 62.7305 25.1561 67.5348C24.1802 67.3847 23.2794 67.1595 22.3786 66.7842C21.4778 66.4839 20.652 66.0335 19.8263 65.5831C17.3491 63.1058 14.9469 60.4785 12.7699 57.701C11.1935 55.7492 9.76723 53.7224 8.49108 51.5454C5.48837 46.2907 4.36235 40.1351 5.26317 34.1297C5.93878 29.7007 7.5152 25.4218 9.91736 21.6685C11.719 18.6657 13.8209 15.8882 16.2981 13.3359C17.0488 12.2099 18.0998 11.4592 19.2258 10.9338Z" fill="white"/>
<path d="M19.2258 10.9338C19.3759 10.8587 19.526 10.8587 19.6011 10.8587C20.3518 10.8587 20.9523 11.4592 20.9523 12.2099C20.9523 12.6603 20.8773 13.1107 20.6521 13.5611C19.7512 14.9874 18.8504 16.4137 17.8745 17.84C15.7727 20.5424 13.971 23.395 12.5447 26.4728C11.0434 29.7007 10.2176 33.2289 10.2927 36.8321C10.3678 40.5105 11.4938 44.0386 13.4455 47.1164C15.2472 50.1942 17.8745 52.5964 21.0274 54.1728C22.0783 54.6983 23.1293 55.2237 24.1802 55.7492C26.4323 56.9503 28.2339 58.7519 29.435 61.0039C30.6361 63.256 31.3117 65.7332 31.4618 68.2105C29.9604 68.6609 28.309 68.5858 26.8076 67.9852C26.5824 67.4598 26.2821 66.559 25.9068 65.5831C25.1561 63.4061 25.1561 63.4812 24.9309 62.7305C23.955 60.4785 22.6038 58.4516 20.9523 56.8002C20.652 56.4999 20.2767 56.3498 19.9764 56.65C19.8263 56.8002 19.9764 57.2506 20.1266 57.4758C20.8773 58.827 21.1025 59.5026 21.703 60.1031C22.5287 60.8538 23.6548 62.7305 25.1561 67.5348C24.1802 67.3847 23.2794 67.1595 22.3786 66.7842C21.4778 66.4839 20.652 66.0335 19.8263 65.5831C17.3491 63.1058 14.9469 60.4785 12.7699 57.701C11.1935 55.7492 9.76723 53.7224 8.49108 51.5454C5.48837 46.2907 4.36235 40.1351 5.26317 34.1297C5.93878 29.7007 7.5152 25.4218 9.91736 21.6685C11.719 18.6657 13.8209 15.8882 16.2981 13.3359C17.0488 12.2099 18.0998 11.4592 19.2258 10.9338Z" fill="#1C75BC"/>
<path d="M21.553 33.5294C22.2286 33.3793 22.9042 33.7546 23.0544 34.4303C23.1294 34.8056 23.2045 35.256 23.2796 35.6313C23.8801 40.3606 25.982 44.7145 29.285 48.1676C31.1617 50.1194 32.8882 52.1462 34.4647 54.3232C36.1912 56.7254 37.3172 59.5779 37.7676 62.5056C37.9929 63.7817 38.143 65.0579 38.218 66.334C36.7918 66.9346 35.2153 67.385 33.714 67.7603C33.4888 64.6075 32.5129 61.4546 30.8614 58.7522C29.7354 56.8004 28.0839 55.224 26.0571 54.1731C25.3815 53.9479 24.9311 53.2723 24.856 52.5966C24.856 52.4465 24.7809 52.2213 24.7809 52.0712C24.3305 49.9693 23.2796 48.2427 22.2286 46.4411C21.553 45.0899 20.8774 43.8137 20.2769 42.4625C19.5262 40.8861 19.2259 39.1595 19.301 37.433C19.301 36.1568 19.9015 34.8807 20.8774 33.9799C21.1777 33.7546 21.3278 33.6045 21.553 33.5294Z" fill="white"/>
<path d="M21.553 33.5294C22.2286 33.3793 22.9042 33.7546 23.0544 34.4303C23.1294 34.8056 23.2045 35.256 23.2796 35.6313C23.8801 40.3606 25.982 44.7145 29.285 48.1676C31.1617 50.1194 32.8882 52.1462 34.4647 54.3232C36.1912 56.7254 37.3172 59.5779 37.7676 62.5056C37.9929 63.7817 38.143 65.0579 38.218 66.334C36.7918 66.9346 35.2153 67.385 33.714 67.7603C33.4888 64.6075 32.5129 61.4546 30.8614 58.7522C29.7354 56.8004 28.0839 55.224 26.0571 54.1731C25.3815 53.9479 24.9311 53.2723 24.856 52.5966C24.856 52.4465 24.7809 52.2213 24.7809 52.0712C24.3305 49.9693 23.2796 48.2427 22.2286 46.4411C21.553 45.0899 20.8774 43.8137 20.2769 42.4625C19.5262 40.8861 19.2259 39.1595 19.301 37.433C19.301 36.1568 19.9015 34.8807 20.8774 33.9799C21.1777 33.7546 21.3278 33.6045 21.553 33.5294Z" fill="#1C75BC"/>
<path d="M20.7253 51.396C17.7977 49.3692 15.4706 46.5166 14.1194 43.2136C12.4679 39.235 12.2427 34.8811 13.4437 30.7524C14.4196 27.3743 15.9961 24.2965 18.2481 21.5941C18.9988 20.6933 19.8996 19.7925 20.8004 19.0418C21.1007 18.6665 21.6261 18.5914 21.9264 18.8917C22.2267 19.267 22.527 19.7174 22.602 20.1678C22.6771 20.4681 22.602 20.8434 22.3768 21.0686C21.7012 22.1946 21.0256 23.3207 20.1998 24.3716C17.047 28.3502 15.6207 33.3797 16.2213 38.4093C16.7467 42.1627 18.173 45.7659 20.4251 48.8437C21.1007 49.7445 21.5511 50.7955 21.7012 51.9215C21.4009 51.7713 21.1007 51.5461 20.7253 51.396Z" fill="white"/>
<path d="M20.7253 51.396C17.7977 49.3692 15.4706 46.5166 14.1194 43.2136C12.4679 39.235 12.2427 34.8811 13.4437 30.7524C14.4196 27.3743 15.9961 24.2965 18.2481 21.5941C18.9988 20.6933 19.8996 19.7925 20.8004 19.0418C21.1007 18.6665 21.6261 18.5914 21.9264 18.8917C22.2267 19.267 22.527 19.7174 22.602 20.1678C22.6771 20.4681 22.602 20.8434 22.3768 21.0686C21.7012 22.1946 21.0256 23.3207 20.1998 24.3716C17.047 28.3502 15.6207 33.3797 16.2213 38.4093C16.7467 42.1627 18.173 45.7659 20.4251 48.8437C21.1007 49.7445 21.5511 50.7955 21.7012 51.9215C21.4009 51.7713 21.1007 51.5461 20.7253 51.396Z" fill="#1C75BC"/>
<path d="M5.18595 52.8215C3.6846 50.8697 2.48351 48.6928 1.65777 46.3657C0.531753 43.363 -0.0687861 40.1351 0.00628165 36.8321C0.0813494 33.8294 0.681889 30.9017 1.65777 28.0491C2.70872 25.0464 4.05994 22.1939 5.78649 19.4914C6.16183 18.8909 6.61224 18.3654 7.13772 17.915C7.43799 17.5397 7.96346 17.4646 8.41387 17.7649C8.7892 18.0651 8.86427 18.5906 8.63907 19.041C8.48893 19.4164 8.3388 19.7917 8.1136 20.167C7.21279 21.8185 6.16183 23.47 5.41116 25.1966C3.53446 29.3253 2.55858 33.9044 2.63365 38.4836C2.63365 43.5131 3.98488 48.5426 6.46211 52.8966C6.61225 53.1218 6.68731 53.347 6.83745 53.5722C6.0117 53.7974 5.56129 53.347 5.18595 52.8215Z" fill="white"/>
<path d="M5.18595 52.8215C3.6846 50.8697 2.48351 48.6928 1.65777 46.3657C0.531753 43.363 -0.0687861 40.1351 0.00628165 36.8321C0.0813494 33.8294 0.681889 30.9017 1.65777 28.0491C2.70872 25.0464 4.05994 22.1939 5.78649 19.4914C6.16183 18.8909 6.61224 18.3654 7.13772 17.915C7.43799 17.5397 7.96346 17.4646 8.41387 17.7649C8.7892 18.0651 8.86427 18.5906 8.63907 19.041C8.48893 19.4164 8.3388 19.7917 8.1136 20.167C7.21279 21.8185 6.16183 23.47 5.41116 25.1966C3.53446 29.3253 2.55858 33.9044 2.63365 38.4836C2.63365 43.5131 3.98488 48.5426 6.46211 52.8966C6.61225 53.1218 6.68731 53.347 6.83745 53.5722C6.0117 53.7974 5.56129 53.347 5.18595 52.8215Z" fill="#1C75BC"/>
<path d="M31.9851 35.4071C31.9101 35.4071 31.9101 35.332 31.835 35.332C31.6849 35.1819 31.3846 34.9567 31.3095 34.7315C31.2345 34.2811 31.3095 33.8306 31.5347 33.4553C31.7599 33.08 31.9101 32.7797 32.0602 32.4044C32.2103 31.954 32.5106 31.6537 32.961 31.5036C33.4114 31.3534 33.9369 31.1282 34.3873 30.9781C34.6876 30.903 34.8377 30.7529 34.7626 30.3775C34.6876 29.9271 34.7626 29.4767 34.9128 29.1014C35.2881 28.5759 35.9637 28.4258 36.4892 28.8011C36.9396 29.1014 37.0897 29.7019 36.8645 30.1523C36.7895 30.3025 36.7144 30.5277 36.6393 30.6778C36.3391 31.2783 36.3391 31.2783 36.7895 31.7288C37.39 32.3293 37.39 32.3293 37.5401 33.3802L38.7412 32.7046C38.441 32.3293 38.2158 31.954 38.0656 31.5036C37.9906 31.1282 37.9906 30.7529 38.1407 30.3775C38.2908 29.9271 39.1916 29.8521 39.7171 30.1523C40.1675 30.4526 40.3927 30.9781 40.1675 31.5036C40.0174 31.8038 39.9423 32.1041 39.7922 32.3293C39.7922 32.4044 39.8672 32.5545 39.9423 32.6296C40.1675 32.7797 40.3927 32.8548 40.6179 32.9298C41.2935 33.155 41.819 33.7556 41.9691 34.4312C42.2694 35.1819 42.6447 35.8575 42.945 36.5331C43.1702 36.9835 43.3204 37.509 43.4705 38.0344C43.4705 38.1095 43.5456 38.1846 43.5456 38.1846C43.9209 38.635 43.9209 39.0103 43.3954 39.5358C43.3954 39.3857 43.3204 39.2355 43.3204 39.1605C43.0201 39.3106 43.0201 39.0854 42.945 38.9353C42.5697 38.0344 42.1193 37.1336 41.5187 36.3079C41.4437 36.2328 41.3686 36.2328 41.3686 36.1577C41.5938 36.6082 41.7439 36.9084 41.8941 37.2087C42.0442 37.6591 42.1943 38.1095 42.3445 38.5599C42.3445 38.635 42.3445 38.7101 42.2694 38.7851C41.8941 39.2355 41.6689 39.8361 41.6689 40.3615C41.4437 41.7128 41.2935 43.064 41.1434 44.4152C41.1434 44.6404 40.9933 44.8656 40.9933 45.0908C40.9933 45.316 40.9933 45.6913 40.9182 45.9916C40.9182 46.367 40.9182 46.6672 40.7681 47.0426C40.5429 47.2678 40.2426 47.3428 39.9423 47.2678C39.7171 47.1927 39.4919 47.0426 39.4168 46.8174C39.3418 46.442 39.1916 46.1418 38.9664 45.9166C38.8163 45.6914 38.7412 45.4661 38.7412 45.2409C38.6662 44.8656 38.5911 44.5653 38.441 44.19C38.2908 43.6645 38.1407 43.1391 37.9906 42.6886C37.8404 41.7878 37.6903 40.8119 37.5401 39.8361C37.1648 39.8361 36.7895 39.8361 36.8645 39.3106C36.7895 40.3615 36.7144 41.4125 36.7144 42.4634C36.7144 43.139 36.6393 43.8147 36.4892 44.4903C36.264 45.0908 36.264 45.6914 36.4141 46.2919C36.4892 46.5171 36.7144 46.6672 36.9396 46.9675C36.6393 47.0426 36.3391 47.1927 36.0388 47.2678C35.9637 47.2678 35.8136 47.2678 35.7385 47.2678C35.138 47.2678 35.0629 47.2678 35.0629 46.6672C34.9878 45.9916 34.9128 45.3911 34.9878 44.7155C35.138 43.5144 35.0629 42.2382 34.9128 41.0372C34.9128 40.5867 34.7626 40.2114 34.6125 39.761C34.5374 40.0613 34.5374 40.3615 34.4624 40.6618C34.4624 41.1122 34.3873 41.5626 34.3122 42.013C34.1621 42.8388 34.1621 43.7396 34.3122 44.5653C34.3122 44.7155 34.3873 44.8656 34.4624 45.0157C34.5374 45.2409 34.6125 45.4662 34.6125 45.7664C34.6125 46.0667 34.7626 46.367 34.7626 46.6672C34.7626 46.8174 34.7626 47.1176 34.6876 47.1927C34.3873 47.3428 34.087 47.3428 33.7868 47.3428C33.7117 47.3428 33.5616 47.0426 33.5616 46.8924C33.5616 46.442 33.4865 45.9166 33.2613 45.5412C33.2613 45.4661 33.2613 45.4662 33.2613 45.3911C33.3364 44.3401 32.8109 43.4393 32.6607 42.3884C32.5857 41.7128 32.5857 41.1122 32.5857 40.4366C32.5857 39.9862 32.5106 39.6109 32.5106 39.1605C32.5106 38.7101 32.2854 38.3347 31.9851 38.0344C31.835 37.8843 31.7599 37.7342 31.7599 37.584C31.7599 37.1336 31.835 36.6832 31.835 36.2328C31.835 36.1577 31.835 36.0076 31.835 35.8575C31.835 35.7073 31.9851 35.6323 31.9851 35.4071ZM39.7922 44.19H39.9423C39.8672 43.7396 39.8672 43.2892 39.7922 42.7637H39.7171L39.7922 44.19Z" fill="white"/>
<path d="M31.9851 35.4071C31.9101 35.4071 31.9101 35.332 31.835 35.332C31.6849 35.1819 31.3846 34.9567 31.3095 34.7315C31.2345 34.2811 31.3095 33.8306 31.5347 33.4553C31.7599 33.08 31.9101 32.7797 32.0602 32.4044C32.2103 31.954 32.5106 31.6537 32.961 31.5036C33.4114 31.3534 33.9369 31.1282 34.3873 30.9781C34.6876 30.903 34.8377 30.7529 34.7626 30.3775C34.6876 29.9271 34.7626 29.4767 34.9128 29.1014C35.2881 28.5759 35.9637 28.4258 36.4892 28.8011C36.9396 29.1014 37.0897 29.7019 36.8645 30.1523C36.7895 30.3025 36.7144 30.5277 36.6393 30.6778C36.3391 31.2783 36.3391 31.2783 36.7895 31.7288C37.39 32.3293 37.39 32.3293 37.5401 33.3802L38.7412 32.7046C38.441 32.3293 38.2158 31.954 38.0656 31.5036C37.9906 31.1282 37.9906 30.7529 38.1407 30.3775C38.2908 29.9271 39.1916 29.8521 39.7171 30.1523C40.1675 30.4526 40.3927 30.9781 40.1675 31.5036C40.0174 31.8038 39.9423 32.1041 39.7922 32.3293C39.7922 32.4044 39.8672 32.5545 39.9423 32.6296C40.1675 32.7797 40.3927 32.8548 40.6179 32.9298C41.2935 33.155 41.819 33.7556 41.9691 34.4312C42.2694 35.1819 42.6447 35.8575 42.945 36.5331C43.1702 36.9835 43.3204 37.509 43.4705 38.0344C43.4705 38.1095 43.5456 38.1846 43.5456 38.1846C43.9209 38.635 43.9209 39.0103 43.3954 39.5358C43.3954 39.3857 43.3204 39.2355 43.3204 39.1605C43.0201 39.3106 43.0201 39.0854 42.945 38.9353C42.5697 38.0344 42.1193 37.1336 41.5187 36.3079C41.4437 36.2328 41.3686 36.2328 41.3686 36.1577C41.5938 36.6082 41.7439 36.9084 41.8941 37.2087C42.0442 37.6591 42.1943 38.1095 42.3445 38.5599C42.3445 38.635 42.3445 38.7101 42.2694 38.7851C41.8941 39.2355 41.6689 39.8361 41.6689 40.3615C41.4437 41.7128 41.2935 43.064 41.1434 44.4152C41.1434 44.6404 40.9933 44.8656 40.9933 45.0908C40.9933 45.316 40.9933 45.6913 40.9182 45.9916C40.9182 46.367 40.9182 46.6672 40.7681 47.0426C40.5429 47.2678 40.2426 47.3428 39.9423 47.2678C39.7171 47.1927 39.4919 47.0426 39.4168 46.8174C39.3418 46.442 39.1916 46.1418 38.9664 45.9166C38.8163 45.6914 38.7412 45.4661 38.7412 45.2409C38.6662 44.8656 38.5911 44.5653 38.441 44.19C38.2908 43.6645 38.1407 43.1391 37.9906 42.6886C37.8404 41.7878 37.6903 40.8119 37.5401 39.8361C37.1648 39.8361 36.7895 39.8361 36.8645 39.3106C36.7895 40.3615 36.7144 41.4125 36.7144 42.4634C36.7144 43.139 36.6393 43.8147 36.4892 44.4903C36.264 45.0908 36.264 45.6914 36.4141 46.2919C36.4892 46.5171 36.7144 46.6672 36.9396 46.9675C36.6393 47.0426 36.3391 47.1927 36.0388 47.2678C35.9637 47.2678 35.8136 47.2678 35.7385 47.2678C35.138 47.2678 35.0629 47.2678 35.0629 46.6672C34.9878 45.9916 34.9128 45.3911 34.9878 44.7155C35.138 43.5144 35.0629 42.2382 34.9128 41.0372C34.9128 40.5867 34.7626 40.2114 34.6125 39.761C34.5374 40.0613 34.5374 40.3615 34.4624 40.6618C34.4624 41.1122 34.3873 41.5626 34.3122 42.013C34.1621 42.8388 34.1621 43.7396 34.3122 44.5653C34.3122 44.7155 34.3873 44.8656 34.4624 45.0157C34.5374 45.2409 34.6125 45.4662 34.6125 45.7664C34.6125 46.0667 34.7626 46.367 34.7626 46.6672C34.7626 46.8174 34.7626 47.1176 34.6876 47.1927C34.3873 47.3428 34.087 47.3428 33.7868 47.3428C33.7117 47.3428 33.5616 47.0426 33.5616 46.8924C33.5616 46.442 33.4865 45.9166 33.2613 45.5412C33.2613 45.4661 33.2613 45.4662 33.2613 45.3911C33.3364 44.3401 32.8109 43.4393 32.6607 42.3884C32.5857 41.7128 32.5857 41.1122 32.5857 40.4366C32.5857 39.9862 32.5106 39.6109 32.5106 39.1605C32.5106 38.7101 32.2854 38.3347 31.9851 38.0344C31.835 37.8843 31.7599 37.7342 31.7599 37.584C31.7599 37.1336 31.835 36.6832 31.835 36.2328C31.835 36.1577 31.835 36.0076 31.835 35.8575C31.835 35.7073 31.9851 35.6323 31.9851 35.4071ZM39.7922 44.19H39.9423C39.8672 43.7396 39.8672 43.2892 39.7922 42.7637H39.7171L39.7922 44.19Z" fill="#1C75BC"/>
<path d="M47.6001 46.5918C47.525 46.5168 47.525 46.5168 47.525 46.4417L46.9996 45.691L45.5733 43.514L44.147 41.4121L42.7207 39.3103L41.5196 37.5837C41.5196 37.5837 41.5196 37.5086 41.4446 37.5086C41.4446 37.5086 41.4446 37.4336 41.3695 37.4336C41.2944 37.3585 41.2944 37.2834 41.2944 37.1333V37.0582C41.2944 36.9832 41.2944 36.833 41.3695 36.7579C41.3695 36.6829 41.3695 36.6829 41.4446 36.6078C41.5196 36.5327 41.5947 36.3826 41.6698 36.3075" fill="white"/>
<path d="M47.6001 46.5918C47.525 46.5168 47.525 46.5168 47.525 46.4417L46.9996 45.691L45.5733 43.514L44.147 41.4121L42.7207 39.3103L41.5196 37.5837C41.5196 37.5837 41.5196 37.5086 41.4446 37.5086C41.4446 37.5086 41.4446 37.4336 41.3695 37.4336C41.2944 37.3585 41.2944 37.2834 41.2944 37.1333V37.0582C41.2944 36.9832 41.2944 36.833 41.3695 36.7579C41.3695 36.6829 41.3695 36.6829 41.4446 36.6078C41.5196 36.5327 41.5947 36.3826 41.6698 36.3075" fill="#1C75BC"/>
<path d="M47.6001 46.5918C47.525 46.5168 47.525 46.5168 47.525 46.4417L46.9996 45.691L45.5733 43.514L44.147 41.4121L42.7207 39.3103L41.5196 37.5837C41.5196 37.5837 41.5196 37.5086 41.4446 37.5086C41.4446 37.5086 41.4446 37.4336 41.3695 37.4336C41.2944 37.3585 41.2944 37.2834 41.2944 37.1333V37.0582C41.2944 36.9832 41.2944 36.833 41.3695 36.7579C41.3695 36.6829 41.3695 36.6829 41.4446 36.6078C41.5196 36.5327 41.5947 36.3826 41.6698 36.3075" stroke="#1C75BC" stroke-width="0.5" stroke-miterlimit="10"/>
<path d="M29.7337 47.3423C29.7337 47.2673 29.7337 47.2673 29.7337 47.1922L29.8839 46.2914L30.2592 43.8892L30.6345 41.4871L31.0099 39.0849L31.3101 37.1331V37.0581V36.983C31.3101 36.9079 31.3852 36.8329 31.4603 36.7578L31.5354 36.6827C31.6104 36.6077 31.6855 36.5326 31.7606 36.5326C31.8356 36.5326 31.8356 36.4575 31.9107 36.4575C32.0608 36.4575 32.1359 36.4575 32.286 36.4575" fill="white"/>
<path d="M29.7337 47.3423C29.7337 47.2673 29.7337 47.2673 29.7337 47.1922L29.8839 46.2914L30.2592 43.8892L30.6345 41.4871L31.0099 39.0849L31.3101 37.1331V37.0581V36.983C31.3101 36.9079 31.3852 36.8329 31.4603 36.7578L31.5354 36.6827C31.6104 36.6077 31.6855 36.5326 31.7606 36.5326C31.8356 36.5326 31.8356 36.4575 31.9107 36.4575C32.0608 36.4575 32.1359 36.4575 32.286 36.4575" fill="#1C75BC"/>
<path d="M29.7337 47.3423C29.7337 47.2673 29.7337 47.2673 29.7337 47.1922L29.8839 46.2914L30.2592 43.8892L30.6345 41.4871L31.0099 39.0849L31.3101 37.1331V37.0581V36.983C31.3101 36.9079 31.3852 36.8329 31.4603 36.7578L31.5354 36.6827C31.6104 36.6077 31.6855 36.5326 31.7606 36.5326C31.8356 36.5326 31.8356 36.4575 31.9107 36.4575C32.0608 36.4575 32.1359 36.4575 32.286 36.4575" stroke="#1C75BC" stroke-width="0.5" stroke-miterlimit="10"/>
<path d="M68.3946 15.1382C68.4697 14.7629 68.3946 14.3125 68.2445 13.9371C68.0944 13.6369 67.9442 13.4867 67.8692 13.4867C67.7941 13.4867 67.7941 13.787 67.4188 14.2374C67.0434 14.6878 66.9684 14.6127 66.8933 14.8379C66.8182 14.9881 66.8182 15.1382 66.8182 15.2883L67.0434 15.3634H66.8933H66.8182C65.8423 15.5886 64.8665 15.8889 63.8906 16.2642C63.9657 15.964 63.9657 15.6637 63.8906 15.4385C63.8155 15.2133 63.6654 15.2133 63.5152 14.913C63.1399 14.3875 63.29 13.9371 63.0648 13.8621C62.8396 13.787 62.3142 14.6127 62.3142 15.4385C62.3142 15.8889 62.4643 16.3393 62.6895 16.7146H62.7646V16.7897C62.5394 16.8648 62.3892 17.0149 62.164 17.09C61.3383 17.4653 60.5876 17.9908 59.8369 18.5163L59.7619 18.5913C59.912 17.6905 59.9871 16.9398 60.0621 16.2642C60.1372 15.3634 60.1372 14.4626 60.0621 13.6369V13.4867H59.9871L60.0621 13.2615V13.4867C60.4375 13.4116 60.7377 13.2615 61.038 13.0363C61.1131 12.9612 61.1881 12.8111 61.2632 12.736C61.3383 12.4358 61.1881 12.2856 61.3383 11.8352C61.4884 11.3848 61.7136 11.1596 61.6386 11.0845C61.5635 11.0095 61.2632 11.0095 60.9629 11.1596C60.5876 11.3098 60.2873 11.535 60.0621 11.8352C59.9871 11.9103 59.912 12.0604 59.8369 12.2106C59.5366 10.8593 59.0112 9.58319 58.2605 8.38211C58.1854 8.23198 58.0353 8.00677 57.9602 7.85664C57.735 7.55637 57.5849 7.2561 57.3597 6.95582C57.5098 6.73062 57.66 6.50542 57.735 6.28021C58.0353 5.52954 57.8852 4.62872 57.5849 4.55366C57.5098 4.55366 57.4348 4.55366 57.1345 4.85393C56.8342 5.07913 56.5339 5.3794 56.3087 5.67967C56.2337 5.82981 56.1586 5.97994 56.1586 6.13008C56.1586 6.20515 56.1586 6.28021 56.1586 6.28021C56.0835 6.80569 56.2337 7.25609 56.5339 7.40623C56.6841 7.4813 56.9093 7.40623 56.9843 7.33116C57.1345 7.4813 57.2846 7.7065 57.3597 7.9317L57.735 8.45718C58.3356 9.5832 58.861 10.7092 59.1613 11.9103L59.2364 12.2856C59.3865 13.0363 59.5367 13.787 59.5367 14.5377C59.5367 15.0631 59.5367 15.5886 59.5367 16.039C59.5367 16.2642 59.5367 16.4894 59.5367 16.7146C59.5367 17.4653 59.3865 18.291 59.3114 19.0417L58.786 19.4171C58.1104 19.9425 57.5098 20.5431 56.9093 21.2187C56.6841 21.519 56.3838 21.7442 56.1586 22.0444C55.7082 22.5699 55.3329 23.1705 54.9575 23.6959C54.6572 22.7951 54.2068 21.9694 53.6063 21.2938L52.9307 20.6932L52.6304 20.5431L52.7055 20.3929C52.3301 20.0176 51.9548 19.5672 51.6545 19.1168C52.3302 18.5163 52.9307 17.9157 53.5312 17.2401C53.9066 16.7897 54.2068 16.4144 54.5071 15.964C54.8825 15.4385 55.1827 14.913 55.483 14.3875C55.6331 14.0873 55.7833 13.8621 55.8583 13.6369C56.4589 14.2374 57.4348 14.2374 57.5098 14.0873C57.5849 13.9371 57.4348 13.9371 57.2846 13.7119C56.9093 13.1864 57.1345 12.8111 56.9093 12.4358C56.6841 12.1355 56.4589 11.9854 56.0835 11.9103H56.0085H55.9334C55.7082 11.8352 55.483 11.9103 55.2578 12.0604C55.0326 12.2856 55.1077 12.661 55.4079 13.1114C55.2578 13.4116 55.0326 13.787 54.8825 14.1623C54.357 15.2133 53.6814 16.1141 52.9307 17.0149L52.5554 17.4653C52.1049 17.9908 51.7296 18.4412 51.3543 18.8165C51.1291 18.5163 50.9039 18.1409 50.6787 17.7656C50.3784 17.3152 50.1532 16.7897 49.928 16.2642V16.1892L50.1532 15.964C50.3784 15.7387 50.5285 15.5135 50.7537 15.2883C51.4293 14.6127 52.0299 13.9371 52.6304 13.3366L52.7806 13.1864C53.0058 13.0363 53.1559 12.8111 53.3811 12.661C53.3811 12.4358 53.3811 12.2856 53.3811 12.0604C53.3811 11.8352 53.231 11.61 53.0808 11.4599C52.8556 11.3098 52.6304 11.4599 52.2551 11.2347C52.18 11.1596 52.1049 11.0845 52.0299 11.0095C51.8047 10.7092 51.8047 10.4089 51.7296 10.4089C51.6545 10.4089 51.3543 11.2347 51.6545 11.9854L51.7296 12.1355C51.8047 12.3607 51.9548 12.5108 52.1049 12.736C51.9548 12.8111 51.8797 12.9612 51.7296 13.0363C51.4293 13.2615 51.2041 13.4867 50.9789 13.7119C50.3784 14.3125 50.0031 15.0631 49.7779 15.8889C49.6277 15.5135 49.4776 15.1382 49.3274 14.6878C48.877 13.7119 48.2014 12.8111 47.3757 12.0604C46.7751 11.535 46.0995 11.0095 45.4239 10.484L45.1987 10.4089C45.1987 10.4089 45.1987 10.4089 45.1987 10.3339C45.2738 10.0336 45.2738 9.8084 45.3488 9.50813C45.4239 8.83252 45.499 8.15691 45.5741 7.40623C45.7242 7.25609 45.8743 7.18103 46.0245 7.03089C46.625 6.58049 47.2255 6.13008 47.9012 5.82981C48.0513 5.97994 48.2765 5.97994 48.4266 5.97994C48.877 5.97994 49.1773 5.3794 49.6277 5.45447C49.7028 5.45447 49.8529 5.52954 49.928 5.60461L50.0031 5.45447C49.7779 5.07913 49.4776 4.77886 49.0272 4.55366C48.2014 4.25339 47.4507 4.32845 47.3006 4.70379C47.2255 4.929 47.3006 5.22927 47.4507 5.3794C46.8502 5.82981 46.1746 6.28021 45.6491 6.73062C45.6491 6.35528 45.6491 5.90488 45.6491 5.52954C45.6491 4.70379 45.499 3.87805 45.4239 3.12737C45.3489 2.75203 45.2738 2.45176 45.1987 2.15149C45.4239 2.15149 45.7242 2.00135 45.7993 1.77615C45.9494 1.32574 45.2738 0.5 44.6732 0.5C44.2228 0.5 43.9226 1.10054 43.4722 1.02547C43.3971 1.02547 43.247 0.950406 43.1719 0.875339L43.0968 1.02547C43.322 1.40081 43.6223 1.70108 44.0727 1.92629C44.2228 2.00135 44.373 2.00135 44.5231 2.07642C44.5982 2.30163 44.6732 2.6019 44.6732 2.8271C44.8984 4.10325 45.0486 5.3794 45.0486 6.65555C45.0486 6.80569 45.0486 7.03089 45.0486 7.18103C45.0486 7.33116 45.0486 7.40623 45.0486 7.4813C45.0486 7.55637 45.0486 7.7065 45.0486 7.85664C45.0486 8.60731 44.9735 9.28292 44.8234 10.0336L44.2979 9.65826L43.7724 9.28292L43.322 8.98265L42.196 8.23198C42.4963 8.53225 42.7965 8.90759 43.0968 9.20786C43.247 9.35799 43.322 9.50813 43.3971 9.65826L43.4722 9.73333L43.8475 9.88347L43.7724 10.1087C44.0727 10.4089 44.2979 10.7843 44.5231 11.0845C44.6732 11.2347 44.7483 11.3848 44.8234 11.535C45.4239 12.2856 45.9494 13.1114 46.4749 13.9371C46.7001 14.2374 46.8502 14.5377 47.0754 14.8379C47.6009 15.7387 48.1264 16.7146 48.5768 17.6905C48.6518 17.8406 48.7269 18.0658 48.802 18.216C48.877 18.3661 48.877 18.4412 48.9521 18.5163C49.1022 18.8165 49.1773 19.1168 49.3274 19.342C49.4776 19.5672 49.5526 19.9425 49.7028 20.2428C49.7028 20.3179 49.7779 20.468 49.7779 20.5431C50.1532 21.519 50.4535 22.5699 50.7537 23.6209C50.8288 23.8461 50.9039 24.1463 50.9789 24.3715C51.2041 25.4225 51.4293 26.4734 51.5795 27.5244C51.6545 28.2 51.7296 28.9507 51.8047 29.6263C51.8047 29.8515 51.8047 30.0767 51.8797 30.3019C51.8797 30.6022 51.8797 30.9775 51.9548 31.2778C51.9548 31.8032 51.9548 32.2536 51.9548 32.7791C51.9548 33.5298 51.8797 34.2054 51.8797 34.881C51.8047 36.0821 51.6545 37.2081 51.4293 38.3341C51.2041 39.4602 50.9789 40.5862 50.6036 41.6371C50.3033 42.5379 50.0031 43.5138 49.6277 44.4146L49.4776 44.79C49.0272 45.8409 48.5768 46.8919 48.0513 47.8677C47.5258 48.8436 46.9253 49.8946 46.2497 50.7954C45.5741 51.7713 44.8984 52.6721 44.0727 53.5729C43.7724 53.8732 43.5472 54.1734 43.247 54.4737C42.7215 55.0742 42.1209 55.5997 41.5204 56.2003C40.6196 57.1011 39.6437 57.9268 38.5928 58.7526C38.2174 59.0528 37.8421 59.278 37.4667 59.5032C37.9922 60.329 38.2925 61.3049 38.3676 62.2807C38.4426 63.4818 38.4426 64.6829 38.2174 65.884L38.2925 65.9591C38.4426 65.884 38.5928 65.8089 38.7429 65.7339C39.8689 65.1333 40.9199 64.4577 41.9708 63.7821C42.8716 63.1816 43.7724 62.4309 44.6732 61.7553L44.8234 61.3049L45.0486 61.3799C46.8502 59.8035 48.5017 58.0019 50.0031 56.0501C50.6787 55.1493 51.3543 54.1734 51.8797 53.1975C52.4803 52.2217 53.0058 51.2458 53.4562 50.1948C53.6814 49.6694 53.9816 49.0688 54.2068 48.4683C54.432 47.8677 54.5822 47.4924 54.7323 47.042C55.1077 45.991 55.4079 44.865 55.6331 43.739C55.8583 42.613 56.0835 41.487 56.2337 40.2859C56.3838 39.0848 56.4589 37.8837 56.4589 36.7577C56.4589 35.6317 56.4589 34.2805 56.3838 33.0794L56.0835 32.9293L56.3838 32.2537C56.3087 31.2027 56.1586 30.2268 56.0085 29.2509C55.7833 27.8997 55.483 26.5485 55.1077 25.2724L54.8074 25.1973L54.9575 24.8219L55.0326 25.1222C55.5581 24.1463 56.1586 23.1705 56.7592 22.3447C57.1345 21.8192 57.4348 21.4439 57.735 21.0686C58.0353 20.6932 58.2605 20.468 58.5608 20.1677C58.7109 20.0176 58.9361 19.7924 59.0862 19.6423L59.2364 19.4921C59.912 18.8916 60.5876 18.3661 61.3383 17.9157C61.6385 17.7656 61.9388 17.5404 62.2391 17.4653L62.3142 17.3152L62.4643 17.3902C63.8155 16.7146 65.2418 16.2642 66.6681 16.039C66.7432 16.1892 66.8182 16.3393 66.9684 16.4894C67.0434 16.5645 67.1185 16.5645 67.1185 16.5645C67.4188 16.6396 67.719 16.3393 67.8692 15.8889C68.2445 15.6637 68.3946 15.3634 68.3946 15.1382Z" fill="white"/>
<path d="M68.3946 15.1382C68.4697 14.7629 68.3946 14.3125 68.2445 13.9371C68.0944 13.6369 67.9442 13.4867 67.8692 13.4867C67.7941 13.4867 67.7941 13.787 67.4188 14.2374C67.0434 14.6878 66.9684 14.6127 66.8933 14.8379C66.8182 14.9881 66.8182 15.1382 66.8182 15.2883L67.0434 15.3634H66.8933H66.8182C65.8423 15.5886 64.8665 15.8889 63.8906 16.2642C63.9657 15.964 63.9657 15.6637 63.8906 15.4385C63.8155 15.2133 63.6654 15.2133 63.5152 14.913C63.1399 14.3875 63.29 13.9371 63.0648 13.8621C62.8396 13.787 62.3142 14.6127 62.3142 15.4385C62.3142 15.8889 62.4643 16.3393 62.6895 16.7146H62.7646V16.7897C62.5394 16.8648 62.3892 17.0149 62.164 17.09C61.3383 17.4653 60.5876 17.9908 59.8369 18.5163L59.7619 18.5913C59.912 17.6905 59.9871 16.9398 60.0621 16.2642C60.1372 15.3634 60.1372 14.4626 60.0621 13.6369V13.4867H59.9871L60.0621 13.2615V13.4867C60.4375 13.4116 60.7377 13.2615 61.038 13.0363C61.1131 12.9612 61.1881 12.8111 61.2632 12.736C61.3383 12.4358 61.1881 12.2856 61.3383 11.8352C61.4884 11.3848 61.7136 11.1596 61.6386 11.0845C61.5635 11.0095 61.2632 11.0095 60.9629 11.1596C60.5876 11.3098 60.2873 11.535 60.0621 11.8352C59.9871 11.9103 59.912 12.0604 59.8369 12.2106C59.5366 10.8593 59.0112 9.58319 58.2605 8.38211C58.1854 8.23198 58.0353 8.00677 57.9602 7.85664C57.735 7.55637 57.5849 7.2561 57.3597 6.95582C57.5098 6.73062 57.66 6.50542 57.735 6.28021C58.0353 5.52954 57.8852 4.62872 57.5849 4.55366C57.5098 4.55366 57.4348 4.55366 57.1345 4.85393C56.8342 5.07913 56.5339 5.3794 56.3087 5.67967C56.2337 5.82981 56.1586 5.97994 56.1586 6.13008C56.1586 6.20515 56.1586 6.28021 56.1586 6.28021C56.0835 6.80569 56.2337 7.25609 56.5339 7.40623C56.6841 7.4813 56.9093 7.40623 56.9843 7.33116C57.1345 7.4813 57.2846 7.7065 57.3597 7.9317L57.735 8.45718C58.3356 9.5832 58.861 10.7092 59.1613 11.9103L59.2364 12.2856C59.3865 13.0363 59.5367 13.787 59.5367 14.5377C59.5367 15.0631 59.5367 15.5886 59.5367 16.039C59.5367 16.2642 59.5367 16.4894 59.5367 16.7146C59.5367 17.4653 59.3865 18.291 59.3114 19.0417L58.786 19.4171C58.1104 19.9425 57.5098 20.5431 56.9093 21.2187C56.6841 21.519 56.3838 21.7442 56.1586 22.0444C55.7082 22.5699 55.3329 23.1705 54.9575 23.6959C54.6572 22.7951 54.2068 21.9694 53.6063 21.2938L52.9307 20.6932L52.6304 20.5431L52.7055 20.3929C52.3301 20.0176 51.9548 19.5672 51.6545 19.1168C52.3302 18.5163 52.9307 17.9157 53.5312 17.2401C53.9066 16.7897 54.2068 16.4144 54.5071 15.964C54.8825 15.4385 55.1827 14.913 55.483 14.3875C55.6331 14.0873 55.7833 13.8621 55.8583 13.6369C56.4589 14.2374 57.4348 14.2374 57.5098 14.0873C57.5849 13.9371 57.4348 13.9371 57.2846 13.7119C56.9093 13.1864 57.1345 12.8111 56.9093 12.4358C56.6841 12.1355 56.4589 11.9854 56.0835 11.9103H56.0085H55.9334C55.7082 11.8352 55.483 11.9103 55.2578 12.0604C55.0326 12.2856 55.1077 12.661 55.4079 13.1114C55.2578 13.4116 55.0326 13.787 54.8825 14.1623C54.357 15.2133 53.6814 16.1141 52.9307 17.0149L52.5554 17.4653C52.1049 17.9908 51.7296 18.4412 51.3543 18.8165C51.1291 18.5163 50.9039 18.1409 50.6787 17.7656C50.3784 17.3152 50.1532 16.7897 49.928 16.2642V16.1892L50.1532 15.964C50.3784 15.7387 50.5285 15.5135 50.7537 15.2883C51.4293 14.6127 52.0299 13.9371 52.6304 13.3366L52.7806 13.1864C53.0058 13.0363 53.1559 12.8111 53.3811 12.661C53.3811 12.4358 53.3811 12.2856 53.3811 12.0604C53.3811 11.8352 53.231 11.61 53.0808 11.4599C52.8556 11.3098 52.6304 11.4599 52.2551 11.2347C52.18 11.1596 52.1049 11.0845 52.0299 11.0095C51.8047 10.7092 51.8047 10.4089 51.7296 10.4089C51.6545 10.4089 51.3543 11.2347 51.6545 11.9854L51.7296 12.1355C51.8047 12.3607 51.9548 12.5108 52.1049 12.736C51.9548 12.8111 51.8797 12.9612 51.7296 13.0363C51.4293 13.2615 51.2041 13.4867 50.9789 13.7119C50.3784 14.3125 50.0031 15.0631 49.7779 15.8889C49.6277 15.5135 49.4776 15.1382 49.3274 14.6878C48.877 13.7119 48.2014 12.8111 47.3757 12.0604C46.7751 11.535 46.0995 11.0095 45.4239 10.484L45.1987 10.4089C45.1987 10.4089 45.1987 10.4089 45.1987 10.3339C45.2738 10.0336 45.2738 9.8084 45.3488 9.50813C45.4239 8.83252 45.499 8.15691 45.5741 7.40623C45.7242 7.25609 45.8743 7.18103 46.0245 7.03089C46.625 6.58049 47.2255 6.13008 47.9012 5.82981C48.0513 5.97994 48.2765 5.97994 48.4266 5.97994C48.877 5.97994 49.1773 5.3794 49.6277 5.45447C49.7028 5.45447 49.8529 5.52954 49.928 5.60461L50.0031 5.45447C49.7779 5.07913 49.4776 4.77886 49.0272 4.55366C48.2014 4.25339 47.4507 4.32845 47.3006 4.70379C47.2255 4.929 47.3006 5.22927 47.4507 5.3794C46.8502 5.82981 46.1746 6.28021 45.6491 6.73062C45.6491 6.35528 45.6491 5.90488 45.6491 5.52954C45.6491 4.70379 45.499 3.87805 45.4239 3.12737C45.3489 2.75203 45.2738 2.45176 45.1987 2.15149C45.4239 2.15149 45.7242 2.00135 45.7993 1.77615C45.9494 1.32574 45.2738 0.5 44.6732 0.5C44.2228 0.5 43.9226 1.10054 43.4722 1.02547C43.3971 1.02547 43.247 0.950406 43.1719 0.875339L43.0968 1.02547C43.322 1.40081 43.6223 1.70108 44.0727 1.92629C44.2228 2.00135 44.373 2.00135 44.5231 2.07642C44.5982 2.30163 44.6732 2.6019 44.6732 2.8271C44.8984 4.10325 45.0486 5.3794 45.0486 6.65555C45.0486 6.80569 45.0486 7.03089 45.0486 7.18103C45.0486 7.33116 45.0486 7.40623 45.0486 7.4813C45.0486 7.55637 45.0486 7.7065 45.0486 7.85664C45.0486 8.60731 44.9735 9.28292 44.8234 10.0336L44.2979 9.65826L43.7724 9.28292L43.322 8.98265L42.196 8.23198C42.4963 8.53225 42.7965 8.90759 43.0968 9.20786C43.247 9.35799 43.322 9.50813 43.3971 9.65826L43.4722 9.73333L43.8475 9.88347L43.7724 10.1087C44.0727 10.4089 44.2979 10.7843 44.5231 11.0845C44.6732 11.2347 44.7483 11.3848 44.8234 11.535C45.4239 12.2856 45.9494 13.1114 46.4749 13.9371C46.7001 14.2374 46.8502 14.5377 47.0754 14.8379C47.6009 15.7387 48.1264 16.7146 48.5768 17.6905C48.6518 17.8406 48.7269 18.0658 48.802 18.216C48.877 18.3661 48.877 18.4412 48.9521 18.5163C49.1022 18.8165 49.1773 19.1168 49.3274 19.342C49.4776 19.5672 49.5526 19.9425 49.7028 20.2428C49.7028 20.3179 49.7779 20.468 49.7779 20.5431C50.1532 21.519 50.4535 22.5699 50.7537 23.6209C50.8288 23.8461 50.9039 24.1463 50.9789 24.3715C51.2041 25.4225 51.4293 26.4734 51.5795 27.5244C51.6545 28.2 51.7296 28.9507 51.8047 29.6263C51.8047 29.8515 51.8047 30.0767 51.8797 30.3019C51.8797 30.6022 51.8797 30.9775 51.9548 31.2778C51.9548 31.8032 51.9548 32.2536 51.9548 32.7791C51.9548 33.5298 51.8797 34.2054 51.8797 34.881C51.8047 36.0821 51.6545 37.2081 51.4293 38.3341C51.2041 39.4602 50.9789 40.5862 50.6036 41.6371C50.3033 42.5379 50.0031 43.5138 49.6277 44.4146L49.4776 44.79C49.0272 45.8409 48.5768 46.8919 48.0513 47.8677C47.5258 48.8436 46.9253 49.8946 46.2497 50.7954C45.5741 51.7713 44.8984 52.6721 44.0727 53.5729C43.7724 53.8732 43.5472 54.1734 43.247 54.4737C42.7215 55.0742 42.1209 55.5997 41.5204 56.2003C40.6196 57.1011 39.6437 57.9268 38.5928 58.7526C38.2174 59.0528 37.8421 59.278 37.4667 59.5032C37.9922 60.329 38.2925 61.3049 38.3676 62.2807C38.4426 63.4818 38.4426 64.6829 38.2174 65.884L38.2925 65.9591C38.4426 65.884 38.5928 65.8089 38.7429 65.7339C39.8689 65.1333 40.9199 64.4577 41.9708 63.7821C42.8716 63.1816 43.7724 62.4309 44.6732 61.7553L44.8234 61.3049L45.0486 61.3799C46.8502 59.8035 48.5017 58.0019 50.0031 56.0501C50.6787 55.1493 51.3543 54.1734 51.8797 53.1975C52.4803 52.2217 53.0058 51.2458 53.4562 50.1948C53.6814 49.6694 53.9816 49.0688 54.2068 48.4683C54.432 47.8677 54.5822 47.4924 54.7323 47.042C55.1077 45.991 55.4079 44.865 55.6331 43.739C55.8583 42.613 56.0835 41.487 56.2337 40.2859C56.3838 39.0848 56.4589 37.8837 56.4589 36.7577C56.4589 35.6317 56.4589 34.2805 56.3838 33.0794L56.0835 32.9293L56.3838 32.2537C56.3087 31.2027 56.1586 30.2268 56.0085 29.2509C55.7833 27.8997 55.483 26.5485 55.1077 25.2724L54.8074 25.1973L54.9575 24.8219L55.0326 25.1222C55.5581 24.1463 56.1586 23.1705 56.7592 22.3447C57.1345 21.8192 57.4348 21.4439 57.735 21.0686C58.0353 20.6932 58.2605 20.468 58.5608 20.1677C58.7109 20.0176 58.9361 19.7924 59.0862 19.6423L59.2364 19.4921C59.912 18.8916 60.5876 18.3661 61.3383 17.9157C61.6385 17.7656 61.9388 17.5404 62.2391 17.4653L62.3142 17.3152L62.4643 17.3902C63.8155 16.7146 65.2418 16.2642 66.6681 16.039C66.7432 16.1892 66.8182 16.3393 66.9684 16.4894C67.0434 16.5645 67.1185 16.5645 67.1185 16.5645C67.4188 16.6396 67.719 16.3393 67.8692 15.8889C68.2445 15.6637 68.3946 15.3634 68.3946 15.1382Z" fill="#008000"/>
<path d="M85.5282 29.5V17.82H87.8002V29.5H85.5282ZM77.8642 29.5V17.82H80.1362V29.5H77.8642ZM79.7202 24.652V22.652H85.9442V24.652H79.7202ZM95.1727 29.804C94.0847 29.804 93.1673 29.596 92.4207 29.18C91.674 28.764 91.1033 28.1827 90.7087 27.436C90.3247 26.6787 90.1327 25.7933 90.1327 24.78V17.82H92.4047V24.908C92.4047 25.4627 92.5113 25.9533 92.7247 26.38C92.938 26.796 93.2473 27.1213 93.6527 27.356C94.0687 27.58 94.5753 27.692 95.1727 27.692C95.7593 27.692 96.2553 27.58 96.6607 27.356C97.0767 27.1213 97.386 26.796 97.5887 26.38C97.802 25.964 97.9087 25.4733 97.9087 24.908V17.82H100.181V24.78C100.181 25.7933 99.9887 26.6787 99.6047 27.436C99.2313 28.1827 98.6713 28.764 97.9247 29.18C97.178 29.596 96.2607 29.804 95.1727 29.804ZM102.521 29.5V17.82H105.625L108.553 24.796H108.841L111.753 17.82H114.905V29.5H112.649V19.532L112.937 19.564L109.785 27.116H107.465L104.297 19.564L104.601 19.532V29.5H102.521ZM117.467 29.5V17.82H120.571L123.499 24.796H123.787L126.699 17.82H129.851V29.5H127.595V19.532L127.883 19.564L124.731 27.116H122.411L119.243 19.564L119.547 19.532V29.5H117.467ZM132.444 29.5V17.82H134.716V29.5H132.444ZM137.311 29.5V17.82H141.039L145.951 27.612H146.479L146.159 27.9V17.82H148.303V29.5H144.559L139.647 19.708H139.103L139.423 19.42V29.5H137.311ZM156.306 29.804C155.303 29.804 154.418 29.6387 153.65 29.308C152.893 28.9667 152.253 28.5133 151.73 27.948C151.218 27.372 150.829 26.7267 150.562 26.012C150.306 25.2867 150.178 24.5347 150.178 23.756V23.404C150.178 22.668 150.306 21.948 150.562 21.244C150.818 20.54 151.191 19.9053 151.682 19.34C152.183 18.7747 152.797 18.3267 153.522 17.996C154.258 17.6547 155.101 17.484 156.05 17.484C157.074 17.484 157.981 17.676 158.77 18.06C159.559 18.4333 160.194 18.9613 160.674 19.644C161.154 20.316 161.437 21.1 161.522 21.996H159.234C159.159 21.4947 158.973 21.068 158.674 20.716C158.375 20.3533 157.997 20.076 157.538 19.884C157.09 19.692 156.594 19.596 156.05 19.596C155.506 19.596 155.01 19.692 154.562 19.884C154.125 20.076 153.751 20.348 153.442 20.7C153.133 21.052 152.893 21.4733 152.722 21.964C152.562 22.4547 152.482 22.9987 152.482 23.596C152.482 24.2467 152.573 24.828 152.754 25.34C152.935 25.852 153.191 26.2893 153.522 26.652C153.853 27.004 154.253 27.276 154.722 27.468C155.191 27.6493 155.719 27.74 156.306 27.74C157.085 27.74 157.767 27.58 158.354 27.26C158.941 26.9293 159.367 26.5027 159.634 25.98L159.234 27.82V24.812H161.33V27.404C160.829 28.1613 160.146 28.7533 159.282 29.18C158.418 29.596 157.426 29.804 156.306 29.804ZM155.938 25.26V23.564H162.306V25.26H155.938ZM165.763 29.58V27.756H168.691C169.224 27.756 169.629 27.612 169.907 27.324C170.184 27.0253 170.323 26.62 170.323 26.108C170.323 25.596 170.184 25.2013 169.907 24.924C169.629 24.636 169.224 24.492 168.691 24.492H165.763V23.1H168.531C169.309 23.1 170.003 23.196 170.611 23.388C171.229 23.5693 171.709 23.8787 172.051 24.316C172.403 24.7533 172.579 25.34 172.579 26.076V26.3C172.579 26.9933 172.424 27.5853 172.115 28.076C171.816 28.556 171.363 28.9293 170.755 29.196C170.157 29.452 169.416 29.58 168.531 29.58H165.763ZM163.859 29.58V17.74H166.083V29.58H163.859ZM165.763 24.124V22.732H168.259C168.803 22.732 169.203 22.588 169.459 22.3C169.715 22.012 169.843 21.628 169.843 21.148C169.843 20.668 169.715 20.284 169.459 19.996C169.203 19.708 168.803 19.564 168.259 19.564H165.763V17.74H168.051C169.373 17.74 170.376 18.0173 171.059 18.572C171.752 19.1267 172.099 19.9213 172.099 20.956V21.18C172.099 21.9053 171.923 22.4867 171.571 22.924C171.229 23.3507 170.755 23.66 170.147 23.852C169.539 24.0333 168.84 24.124 168.051 24.124H165.763ZM174.586 29.5V17.82H176.858V29.5H174.586ZM179.453 29.5V17.74H181.725V29.5H179.453ZM186.589 29.5L183.005 24.412H185.549L189.245 29.5H186.589ZM181.053 25.596V23.756H184.029C184.445 23.756 184.802 23.6707 185.101 23.5C185.41 23.3293 185.65 23.0893 185.821 22.78C185.992 22.4707 186.077 22.1187 186.077 21.724C186.077 21.3187 185.992 20.9613 185.821 20.652C185.65 20.3427 185.41 20.1027 185.101 19.932C184.802 19.7613 184.445 19.676 184.029 19.676H181.053V17.74H183.789C184.728 17.74 185.538 17.8787 186.221 18.156C186.914 18.4333 187.448 18.8547 187.821 19.42C188.194 19.9853 188.381 20.6947 188.381 21.548V21.804C188.381 22.668 188.189 23.3773 187.805 23.932C187.432 24.4867 186.904 24.9027 186.221 25.18C185.538 25.4573 184.728 25.596 183.789 25.596H181.053ZM192.601 29.564V27.452H195.017C195.625 27.452 196.163 27.3613 196.633 27.18C197.113 26.988 197.518 26.7213 197.849 26.38C198.179 26.0387 198.43 25.6387 198.601 25.18C198.782 24.7107 198.873 24.1933 198.873 23.628C198.873 23.0413 198.782 22.5187 198.601 22.06C198.43 21.5907 198.179 21.1907 197.849 20.86C197.518 20.5293 197.113 20.2787 196.633 20.108C196.163 19.9373 195.625 19.852 195.017 19.852H192.601V17.74H194.873C195.929 17.74 196.851 17.8947 197.641 18.204C198.43 18.5133 199.086 18.94 199.609 19.484C200.131 20.0173 200.521 20.6307 200.777 21.324C201.043 22.0067 201.177 22.716 201.177 23.452V23.804C201.177 24.508 201.043 25.2013 200.777 25.884C200.521 26.5667 200.131 27.1853 199.609 27.74C199.086 28.2947 198.43 28.7373 197.641 29.068C196.851 29.3987 195.929 29.564 194.873 29.564H192.601ZM190.649 29.564V17.74H192.921V29.564H190.649ZM206.813 29.804C205.778 29.804 204.903 29.6387 204.189 29.308C203.485 28.9773 202.946 28.524 202.573 27.948C202.199 27.3613 202.013 26.7 202.013 25.964H204.237C204.237 26.2733 204.322 26.5773 204.493 26.876C204.663 27.164 204.935 27.3987 205.309 27.58C205.693 27.7613 206.194 27.852 206.813 27.852C207.367 27.852 207.831 27.772 208.205 27.612C208.578 27.452 208.855 27.244 209.037 26.988C209.218 26.7213 209.309 26.4227 209.309 26.092C209.309 25.676 209.133 25.3453 208.781 25.1C208.429 24.844 207.885 24.684 207.149 24.62L206.125 24.54C205.005 24.444 204.109 24.0973 203.437 23.5C202.775 22.892 202.445 22.092 202.445 21.1C202.445 20.3533 202.621 19.7133 202.973 19.18C203.325 18.636 203.815 18.22 204.445 17.932C205.085 17.6333 205.831 17.484 206.685 17.484C207.57 17.484 208.333 17.6387 208.973 17.948C209.613 18.2573 210.109 18.6947 210.461 19.26C210.813 19.8147 210.989 20.4707 210.989 21.228H208.765C208.765 20.908 208.685 20.6147 208.525 20.348C208.375 20.0707 208.146 19.852 207.837 19.692C207.538 19.5213 207.154 19.436 206.685 19.436C206.237 19.436 205.863 19.5107 205.565 19.66C205.266 19.8093 205.042 20.012 204.893 20.268C204.743 20.524 204.669 20.8013 204.669 21.1C204.669 21.4627 204.802 21.7827 205.069 22.06C205.335 22.3267 205.757 22.4813 206.333 22.524L207.357 22.62C208.189 22.684 208.919 22.86 209.549 23.148C210.178 23.436 210.663 23.8253 211.005 24.316C211.357 24.8067 211.533 25.3987 211.533 26.092C211.533 26.828 211.341 27.4787 210.957 28.044C210.573 28.5987 210.023 29.0307 209.309 29.34C208.605 29.6493 207.773 29.804 206.813 29.804ZM83.1282 49.804C82.0722 49.804 81.1655 49.6173 80.4082 49.244C79.6508 48.8707 79.0322 48.3853 78.5522 47.788C78.0828 47.1907 77.7362 46.54 77.5122 45.836C77.2882 45.132 77.1762 44.4547 77.1762 43.804V43.452C77.1762 42.7267 77.2882 42.012 77.5122 41.308C77.7468 40.604 78.1042 39.964 78.5842 39.388C79.0642 38.812 79.6722 38.3533 80.4082 38.012C81.1548 37.66 82.0348 37.484 83.0482 37.484C84.1042 37.484 85.0215 37.676 85.8002 38.06C86.5895 38.4333 87.2188 38.9667 87.6882 39.66C88.1575 40.3427 88.4402 41.1427 88.5362 42.06H86.2482C86.1628 41.5267 85.9708 41.0787 85.6722 40.716C85.3842 40.3427 85.0162 40.0653 84.5682 39.884C84.1202 39.692 83.6135 39.596 83.0482 39.596C82.4722 39.596 81.9602 39.6973 81.5122 39.9C81.0642 40.092 80.6908 40.3693 80.3922 40.732C80.0935 41.0947 79.8642 41.5213 79.7042 42.012C79.5548 42.5027 79.4802 43.0467 79.4802 43.644C79.4802 44.22 79.5548 44.7533 79.7042 45.244C79.8642 45.7347 80.0988 46.1667 80.4082 46.54C80.7175 46.9027 81.0962 47.1853 81.5442 47.388C82.0028 47.5907 82.5308 47.692 83.1282 47.692C84.0028 47.692 84.7388 47.4787 85.3362 47.052C85.9442 46.6147 86.3122 46.0067 86.4402 45.228H88.7282C88.6215 46.06 88.3388 46.8227 87.8802 47.516C87.4215 48.2093 86.7922 48.764 85.9922 49.18C85.1922 49.596 84.2375 49.804 83.1282 49.804ZM89.064 49.5L93.048 37.82H96.76L100.856 49.5H98.52L95.048 39.372L95.864 39.724H93.864L94.696 39.372L91.336 49.5H89.064ZM91.848 46.396L92.568 44.476H97.304L98.008 46.396H91.848ZM102.271 49.5V37.74H104.543V49.5H102.271ZM109.407 49.5L105.823 44.412H108.367L112.063 49.5H109.407ZM103.871 45.596V43.756H106.847C107.263 43.756 107.62 43.6707 107.919 43.5C108.228 43.3293 108.468 43.0893 108.639 42.78C108.81 42.4707 108.895 42.1187 108.895 41.724C108.895 41.3187 108.81 40.9613 108.639 40.652C108.468 40.3427 108.228 40.1027 107.919 39.932C107.62 39.7613 107.263 39.676 106.847 39.676H103.871V37.74H106.607C107.546 37.74 108.356 37.8787 109.039 38.156C109.732 38.4333 110.266 38.8547 110.639 39.42C111.012 39.9853 111.199 40.6947 111.199 41.548V41.804C111.199 42.668 111.007 43.3773 110.623 43.932C110.25 44.4867 109.722 44.9027 109.039 45.18C108.356 45.4573 107.546 45.596 106.607 45.596H103.871ZM113.467 49.5V37.82H115.691V49.5H113.467ZM115.371 49.5V47.58H120.667V49.5H115.371ZM115.371 44.524V42.604H120.251V44.524H115.371ZM115.371 39.74V37.82H120.539V39.74H115.371ZM125.843 49.5V37.82H128.115V49.5H125.843ZM130.71 49.5V37.82H134.438L139.35 47.612H139.878L139.558 47.9V37.82H141.702V49.5H137.958L133.046 39.708H132.502L132.822 39.42V49.5H130.71ZM144.297 49.5V37.82H146.569V49.5H144.297ZM151.468 49.5V39.5H153.74V49.5H151.468ZM148.092 39.82V37.82H157.116V39.82H148.092ZM158.641 49.5V37.82H160.913V49.5H158.641ZM162.356 49.5L166.34 37.82H170.052L174.148 49.5H171.812L168.34 39.372L169.156 39.724H167.156L167.988 39.372L164.628 49.5H162.356ZM165.14 46.396L165.86 44.476H170.596L171.3 46.396H165.14ZM176.883 49.5V39.5H179.155V49.5H176.883ZM173.507 39.82V37.82H182.531V39.82H173.507ZM184.056 49.5V37.82H186.328V49.5H184.056ZM191.547 49.5L187.819 37.82H190.171L193.259 47.932L192.587 47.612H194.315L193.627 47.932L196.475 37.82H198.747L195.291 49.5H191.547ZM200.259 49.5V37.82H202.483V49.5H200.259ZM202.163 49.5V47.58H207.459V49.5H202.163ZM202.163 44.524V42.604H207.043V44.524H202.163ZM202.163 39.74V37.82H207.331V39.74H202.163Z" fill="black"/>
</svg>
