<svg width="49" height="48" viewBox="0 0 49 48" fill="none" xmlns="http://www.w3.org/2000/svg">
<path d="M36.5 0L44.5 8V47C44.5 47.5523 44.0523 48 43.5 48H5.5C4.94772 48 4.5 47.5523 4.5 47V1C4.5 0.447715 4.94772 8.05317e-09 5.5 0H36.5Z" fill="#E4E7EC"/>
<path d="M44.5 8H36.5V0L44.5 8Z" fill="#98A2B3"/>
<rect x="2.5" y="20" width="44" height="20" rx="1" fill="#CC400C"/>
<path d="M17.1638 32.909V27.0908H19.3456C19.7926 27.0908 20.1676 27.1742 20.4706 27.3408C20.7756 27.5075 21.0057 27.7367 21.161 28.0283C21.3182 28.3181 21.3968 28.6476 21.3968 29.017C21.3968 29.3901 21.3182 29.7215 21.161 30.0113C21.0038 30.301 20.7718 30.5293 20.465 30.6959C20.1581 30.8607 19.7803 30.9431 19.3314 30.9431H17.8854V30.0766H19.1894C19.4508 30.0766 19.6648 30.0312 19.8314 29.9403C19.9981 29.8493 20.1212 29.7243 20.2008 29.5653C20.2822 29.4062 20.3229 29.2234 20.3229 29.017C20.3229 28.8105 20.2822 28.6287 20.2008 28.4715C20.1212 28.3143 19.9972 28.1921 19.8286 28.105C19.6619 28.016 19.447 27.9715 19.1837 27.9715H18.2178V32.909H17.1638Z" fill="white"/>
<path d="M24.2838 32.909H22.3123V27.0908H24.3236C24.9013 27.0908 25.3975 27.2073 25.8123 27.4403C26.2289 27.6713 26.549 28.0037 26.7725 28.4374C26.996 28.8711 27.1077 29.3901 27.1077 29.9942C27.1077 30.6003 26.995 31.1211 26.7696 31.5567C26.5462 31.9923 26.2232 32.3266 25.8009 32.5596C25.3804 32.7925 24.8748 32.909 24.2838 32.909ZM23.3662 31.9971H24.2327C24.638 31.9971 24.9761 31.9232 25.2469 31.7755C25.5177 31.6259 25.7213 31.4033 25.8577 31.1079C25.9941 30.8105 26.0623 30.4393 26.0623 29.9942C26.0623 29.5492 25.9941 29.1798 25.8577 28.8863C25.7213 28.5908 25.5196 28.3702 25.2526 28.2243C24.9874 28.0766 24.6579 28.0028 24.264 28.0028H23.3662V31.9971Z" fill="white"/>
<path d="M28.1091 32.909V27.0908H31.8364V27.9743H29.1631V29.5539H31.5807V30.4374H29.1631V32.909H28.1091Z" fill="white"/>
</svg>
