<svg width="138" height="41" viewBox="0 0 138 41" fill="none" xmlns="http://www.w3.org/2000/svg">
<rect x="1.00625" y="0.50625" width="135.675" height="39.4875" rx="4.55625" fill="#141414"/>
<rect x="1.00625" y="0.50625" width="135.675" height="39.4875" rx="4.55625" stroke="#A6A6A6" stroke-width="1.0125"/>
<g filter="url(#filter0_ii_1186_626)">
<path d="M11.0663 7.63202C10.7717 7.94387 10.5975 8.42784 10.5975 9.05458V31.447C10.5975 32.0748 10.7717 32.5577 11.0663 32.8696L11.1412 32.9425L23.6851 20.3986V20.2508V20.103L11.1412 7.55811L11.0663 7.63202Z" fill="url(#paint0_linear_1186_626)"/>
<path d="M27.8657 24.5813L23.6851 20.3987V20.2508V20.103L27.8667 15.9214L27.9609 15.975L32.9151 18.7898C34.3295 19.5937 34.3295 20.909 32.9151 21.7139L27.9609 24.5287L27.8657 24.5813Z" fill="url(#paint1_linear_1186_626)"/>
<g filter="url(#filter1_i_1186_626)">
<path d="M27.961 24.5278L23.6841 20.251L11.0664 32.8698C11.5321 33.3639 12.3026 33.4246 13.1704 32.9325L27.961 24.5278Z" fill="url(#paint2_linear_1186_626)"/>
</g>
<path d="M27.961 15.974L13.1704 7.57026C12.3026 7.07717 11.5321 7.13893 11.0664 7.63303L23.6852 20.2518L27.961 15.974Z" fill="url(#paint3_linear_1186_626)"/>
</g>
<path d="M69.4876 22.0231C67.1062 22.0231 65.1653 23.8344 65.1653 26.3292C65.1653 28.8088 67.1062 30.6354 69.4876 30.6354C71.8701 30.6354 73.811 28.8088 73.811 26.3292C73.81 23.8344 71.869 22.0231 69.4876 22.0231ZM69.4876 28.9405C68.1825 28.9405 67.0576 27.8642 67.0576 26.3302C67.0576 24.7801 68.1835 23.72 69.4876 23.72C70.7928 23.72 71.9176 24.7801 71.9176 26.3302C71.9176 27.8632 70.7928 28.9405 69.4876 28.9405ZM60.0572 22.0231C57.6758 22.0231 55.7349 23.8344 55.7349 26.3292C55.7349 28.8088 57.6758 30.6354 60.0572 30.6354C62.4396 30.6354 64.3806 28.8088 64.3806 26.3292C64.3806 23.8344 62.4396 22.0231 60.0572 22.0231ZM60.0572 28.9405C58.7521 28.9405 57.6272 27.8642 57.6272 26.3302C57.6272 24.7801 58.7531 23.72 60.0572 23.72C61.3623 23.72 62.4872 24.7801 62.4872 26.3302C62.4882 27.8632 61.3623 28.9405 60.0572 28.9405ZM48.8407 23.3454V25.1719H53.2127C53.0821 26.1996 52.7399 26.9499 52.2174 27.4713C51.5816 28.1072 50.5863 28.8088 48.8407 28.8088C46.1495 28.8088 44.0455 26.639 44.0455 23.9478C44.0455 21.2566 46.1495 19.0868 48.8407 19.0868C50.2927 19.0868 51.3528 19.6579 52.1354 20.3919L53.4243 19.103C52.3308 18.0591 50.8799 17.2603 48.8407 17.2603C45.1542 17.2603 42.055 20.2613 42.055 23.9478C42.055 27.6343 45.1542 30.6354 48.8407 30.6354C50.8303 30.6354 52.3318 29.9823 53.5053 28.7592C54.7122 27.5523 55.0879 25.8554 55.0879 24.4855C55.0879 24.0622 55.0555 23.6704 54.9897 23.3444H48.8407V23.3454ZM94.7151 24.7639C94.3567 23.802 93.2632 22.0231 91.0286 22.0231C88.8102 22.0231 86.9664 23.7686 86.9664 26.3292C86.9664 28.743 88.794 30.6354 91.2402 30.6354C93.2136 30.6354 94.3557 29.4285 94.8295 28.7268L93.3614 27.7477C92.8723 28.4656 92.2031 28.9384 91.2402 28.9384C90.2783 28.9384 89.5928 28.498 89.1524 27.6333L94.9105 25.2519L94.7151 24.7639ZM88.8426 26.1996C88.794 24.5351 90.1315 23.6876 91.0944 23.6876C91.8447 23.6876 92.4805 24.0632 92.6931 24.6009L88.8426 26.1996ZM84.1618 30.3752H86.0532V17.7179H84.1618V30.3752ZM81.0615 22.9859H80.9967C80.5725 22.4797 79.7564 22.0231 78.7297 22.0231C76.5762 22.0231 74.6028 23.9154 74.6028 26.3464C74.6028 28.7602 76.5762 30.6364 78.7297 30.6364C79.7574 30.6364 80.5725 30.1798 80.9967 29.6583H81.0615V30.278C81.0615 31.9253 80.1806 32.8062 78.7621 32.8062C77.6038 32.8062 76.886 31.9749 76.5924 31.2733L74.945 31.9587C75.4179 33.0998 76.6733 34.5031 78.7621 34.5031C80.9805 34.5031 82.8567 33.198 82.8567 30.0167V22.2853H81.0625V22.9859H81.0615ZM78.8928 28.9405C77.5876 28.9405 76.4952 27.847 76.4952 26.3464C76.4952 24.8287 77.5876 23.72 78.8928 23.72C80.1807 23.72 81.1921 24.8287 81.1921 26.3464C81.1921 27.847 80.1807 28.9405 78.8928 28.9405ZM103.579 17.7179H99.0516V30.3752H100.94V25.58H103.578C105.671 25.58 107.731 24.0643 107.731 21.6494C107.731 19.2346 105.672 17.7179 103.579 17.7179ZM103.627 23.8182H100.94V19.4797H103.627C105.04 19.4797 105.841 20.6491 105.841 21.6494C105.841 22.6295 105.04 23.8182 103.627 23.8182ZM115.303 22.0008C113.935 22.0008 112.519 22.6032 111.933 23.9387L113.609 24.6383C113.968 23.9387 114.636 23.7099 115.336 23.7099C116.313 23.7099 117.306 24.2961 117.322 25.338V25.4686C116.98 25.2732 116.247 24.9806 115.352 24.9806C113.545 24.9806 111.704 25.9738 111.704 27.8297C111.704 29.5237 113.186 30.6141 114.847 30.6141C116.116 30.6141 116.817 30.0441 117.256 29.3758H117.321V30.3529H119.146V25.5C119.147 23.2543 117.468 22.0008 115.303 22.0008ZM115.074 28.9374C114.457 28.9374 113.593 28.6276 113.593 27.8621C113.593 26.8851 114.668 26.5105 115.597 26.5105C116.426 26.5105 116.818 26.6897 117.322 26.9337C117.175 28.1072 116.166 28.9374 115.074 28.9374ZM125.79 22.2772L123.624 27.7649H123.559L121.311 22.2772H119.276L122.647 29.9469L120.725 34.2136H122.696L127.891 22.2772H125.79ZM108.774 30.3752H110.662V17.7179H108.774V30.3752Z" fill="white"/>
<path d="M48.5107 10.3709C48.5107 11.2193 48.2596 11.8947 47.7564 12.3989C47.1854 12.9983 46.4402 13.298 45.5249 13.298C44.648 13.298 43.9018 12.9942 43.2893 12.3867C42.6757 11.7782 42.3689 11.0249 42.3689 10.1258C42.3689 9.22572 42.6757 8.47242 43.2893 7.86492C43.9018 7.25641 44.648 6.95266 45.5249 6.95266C45.9602 6.95266 46.3764 7.03771 46.7712 7.2068C47.1671 7.3769 47.484 7.60269 47.721 7.88517L47.1874 8.41977C46.7854 7.93884 46.2316 7.69887 45.5238 7.69887C44.8839 7.69887 44.3311 7.92365 43.8644 8.3732C43.3976 8.82275 43.1647 9.40696 43.1647 10.1248C43.1647 10.8427 43.3976 11.4269 43.8644 11.8764C44.3311 12.326 44.8839 12.5508 45.5238 12.5508C46.2022 12.5508 46.7682 12.325 47.2208 11.8724C47.5144 11.5778 47.6845 11.1677 47.7301 10.6422H45.5238V9.9122H48.4672C48.4976 10.0712 48.5107 10.224 48.5107 10.3709Z" fill="white"/>
<path d="M53.1784 7.83359H50.4123V9.75937H52.9071V10.4894H50.4123V12.4152H53.1784V13.1624H49.6317V7.08738H53.1784V7.83359Z" fill="white"/>
<path d="M56.47 13.1624H55.6893V7.83359H53.9924V7.08738H58.1669V7.83359H56.47V13.1624Z" fill="white"/>
<path d="M61.1872 13.1624V7.08738H61.9678V13.1624H61.1872Z" fill="white"/>
<path d="M65.4297 13.1624H64.6491V7.83359H62.9521V7.08738H67.1266V7.83359H65.4297V13.1624Z" fill="white"/>
<path d="M75.029 12.3777C74.4316 12.9913 73.6894 13.298 72.8015 13.298C71.9135 13.298 71.1714 12.9913 70.575 12.3777C69.9776 11.7641 69.6799 11.0128 69.6799 10.1249C69.6799 9.23691 69.9776 8.48563 70.575 7.87206C71.1714 7.25848 71.9135 6.95068 72.8015 6.95068C73.6844 6.95068 74.4255 7.2595 75.0249 7.87611C75.6243 8.49272 75.924 9.24197 75.924 10.1249C75.924 11.0128 75.6254 11.7641 75.029 12.3777ZM71.1511 11.8684C71.6007 12.324 72.1504 12.5508 72.8015 12.5508C73.4525 12.5508 74.0033 12.323 74.4519 11.8684C74.9014 11.4128 75.1272 10.8316 75.1272 10.1249C75.1272 9.41815 74.9014 8.83697 74.4519 8.38135C74.0033 7.92572 73.4525 7.69892 72.8015 7.69892C72.1504 7.69892 71.6007 7.92673 71.1511 8.38135C70.7026 8.83697 70.4768 9.41815 70.4768 10.1249C70.4768 10.8316 70.7026 11.4128 71.1511 11.8684Z" fill="white"/>
<path d="M77.0196 13.1624V7.08738H77.9693L80.9218 11.8127H80.9552L80.9218 10.6423V7.08738H81.7024V13.1624H80.8873L77.7982 8.20721H77.7648L77.7982 9.37766V13.1624H77.0196Z" fill="white"/>
<path d="M48.5107 10.3709C48.5107 11.2193 48.2596 11.8947 47.7564 12.3989C47.1854 12.9983 46.4402 13.298 45.5249 13.298C44.648 13.298 43.9018 12.9942 43.2893 12.3867C42.6757 11.7782 42.3689 11.0249 42.3689 10.1258C42.3689 9.22572 42.6757 8.47242 43.2893 7.86492C43.9018 7.25641 44.648 6.95266 45.5249 6.95266C45.9602 6.95266 46.3764 7.03771 46.7712 7.2068C47.1671 7.3769 47.484 7.60269 47.721 7.88517L47.1874 8.41977C46.7854 7.93884 46.2316 7.69887 45.5238 7.69887C44.8839 7.69887 44.3311 7.92365 43.8644 8.3732C43.3976 8.82275 43.1647 9.40696 43.1647 10.1248C43.1647 10.8427 43.3976 11.4269 43.8644 11.8764C44.3311 12.326 44.8839 12.5508 45.5238 12.5508C46.2022 12.5508 46.7682 12.325 47.2208 11.8724C47.5144 11.5778 47.6845 11.1677 47.7301 10.6422H45.5238V9.9122H48.4672C48.4976 10.0712 48.5107 10.224 48.5107 10.3709Z" stroke="white" stroke-width="0.2025" stroke-miterlimit="10"/>
<path d="M53.1784 7.83359H50.4123V9.75937H52.9071V10.4894H50.4123V12.4152H53.1784V13.1624H49.6317V7.08738H53.1784V7.83359Z" stroke="white" stroke-width="0.2025" stroke-miterlimit="10"/>
<path d="M56.47 13.1624H55.6893V7.83359H53.9924V7.08738H58.1669V7.83359H56.47V13.1624Z" stroke="white" stroke-width="0.2025" stroke-miterlimit="10"/>
<path d="M61.1872 13.1624V7.08738H61.9678V13.1624H61.1872Z" stroke="white" stroke-width="0.2025" stroke-miterlimit="10"/>
<path d="M65.4297 13.1624H64.6491V7.83359H62.9521V7.08738H67.1266V7.83359H65.4297V13.1624Z" stroke="white" stroke-width="0.2025" stroke-miterlimit="10"/>
<path d="M75.029 12.3777C74.4316 12.9913 73.6894 13.298 72.8015 13.298C71.9135 13.298 71.1714 12.9913 70.575 12.3777C69.9776 11.7641 69.6799 11.0128 69.6799 10.1249C69.6799 9.23691 69.9776 8.48563 70.575 7.87206C71.1714 7.25848 71.9135 6.95068 72.8015 6.95068C73.6844 6.95068 74.4255 7.2595 75.0249 7.87611C75.6243 8.49272 75.924 9.24197 75.924 10.1249C75.924 11.0128 75.6254 11.7641 75.029 12.3777ZM71.1511 11.8684C71.6007 12.324 72.1504 12.5508 72.8015 12.5508C73.4525 12.5508 74.0033 12.323 74.4519 11.8684C74.9014 11.4128 75.1272 10.8316 75.1272 10.1249C75.1272 9.41815 74.9014 8.83697 74.4519 8.38135C74.0033 7.92572 73.4525 7.69892 72.8015 7.69892C72.1504 7.69892 71.6007 7.92673 71.1511 8.38135C70.7026 8.83697 70.4768 9.41815 70.4768 10.1249C70.4768 10.8316 70.7026 11.4128 71.1511 11.8684Z" stroke="white" stroke-width="0.2025" stroke-miterlimit="10"/>
<path d="M77.0196 13.1624V7.08738H77.9693L80.9218 11.8127H80.9552L80.9218 10.6423V7.08738H81.7024V13.1624H80.8873L77.7982 8.20721H77.7648L77.7982 9.37766V13.1624H77.0196Z" stroke="white" stroke-width="0.2025" stroke-miterlimit="10"/>
<defs>
<filter id="filter0_ii_1186_626" x="10.5975" y="7.22998" width="23.3784" height="26.0425" filterUnits="userSpaceOnUse" color-interpolation-filters="sRGB">
<feFlood flood-opacity="0" result="BackgroundImageFix"/>
<feBlend mode="normal" in="SourceGraphic" in2="BackgroundImageFix" result="shape"/>
<feColorMatrix in="SourceAlpha" type="matrix" values="0 0 0 0 0 0 0 0 0 0 0 0 0 0 0 0 0 0 127 0" result="hardAlpha"/>
<feOffset dy="-0.151875"/>
<feComposite in2="hardAlpha" operator="arithmetic" k2="-1" k3="1"/>
<feColorMatrix type="matrix" values="0 0 0 0 0 0 0 0 0 0 0 0 0 0 0 0 0 0 0.12 0"/>
<feBlend mode="normal" in2="shape" result="effect1_innerShadow_1186_626"/>
<feColorMatrix in="SourceAlpha" type="matrix" values="0 0 0 0 0 0 0 0 0 0 0 0 0 0 0 0 0 0 127 0" result="hardAlpha"/>
<feOffset dy="0.151875"/>
<feComposite in2="hardAlpha" operator="arithmetic" k2="-1" k3="1"/>
<feColorMatrix type="matrix" values="0 0 0 0 1 0 0 0 0 1 0 0 0 0 1 0 0 0 0.25 0"/>
<feBlend mode="normal" in2="effect1_innerShadow_1186_626" result="effect2_innerShadow_1186_626"/>
</filter>
<filter id="filter1_i_1186_626" x="11.0664" y="20.251" width="16.8946" height="13.0215" filterUnits="userSpaceOnUse" color-interpolation-filters="sRGB">
<feFlood flood-opacity="0" result="BackgroundImageFix"/>
<feBlend mode="normal" in="SourceGraphic" in2="BackgroundImageFix" result="shape"/>
<feColorMatrix in="SourceAlpha" type="matrix" values="0 0 0 0 0 0 0 0 0 0 0 0 0 0 0 0 0 0 127 0" result="hardAlpha"/>
<feOffset dy="-0.151875"/>
<feComposite in2="hardAlpha" operator="arithmetic" k2="-1" k3="1"/>
<feColorMatrix type="matrix" values="0 0 0 0 0 0 0 0 0 0 0 0 0 0 0 0 0 0 0.08 0"/>
<feBlend mode="normal" in2="shape" result="effect1_innerShadow_1186_626"/>
</filter>
<linearGradient id="paint0_linear_1186_626" x1="22.5732" y1="8.81766" x2="5.58141" y2="25.8094" gradientUnits="userSpaceOnUse">
<stop stop-color="#00A0FF"/>
<stop offset="0.0066" stop-color="#00A1FF"/>
<stop offset="0.2601" stop-color="#00BEFF"/>
<stop offset="0.5122" stop-color="#00D2FF"/>
<stop offset="0.7604" stop-color="#00DFFF"/>
<stop offset="1" stop-color="#00E3FF"/>
</linearGradient>
<linearGradient id="paint1_linear_1186_626" x1="34.7563" y1="20.2508" x2="10.258" y2="20.2508" gradientUnits="userSpaceOnUse">
<stop stop-color="#FFE000"/>
<stop offset="0.4087" stop-color="#FFBD00"/>
<stop offset="0.7754" stop-color="#FFA500"/>
<stop offset="1" stop-color="#FF9C00"/>
</linearGradient>
<linearGradient id="paint2_linear_1186_626" x1="25.6384" y1="22.5736" x2="2.5954" y2="45.6165" gradientUnits="userSpaceOnUse">
<stop stop-color="#FF3A44"/>
<stop offset="1" stop-color="#C31162"/>
</linearGradient>
<linearGradient id="paint3_linear_1186_626" x1="7.88854" y1="0.178805" x2="18.1779" y2="10.4681" gradientUnits="userSpaceOnUse">
<stop stop-color="#32A071"/>
<stop offset="0.0685" stop-color="#2DA771"/>
<stop offset="0.4762" stop-color="#15CF74"/>
<stop offset="0.8009" stop-color="#06E775"/>
<stop offset="1" stop-color="#00F076"/>
</linearGradient>
</defs>
</svg>
