<svg width="21" height="20" viewBox="0 0 21 20" fill="none" xmlns="http://www.w3.org/2000/svg">
<path d="M8.13188 4.76013L7.79633 4.00515C7.57693 3.5115 7.46723 3.26467 7.30317 3.07578C7.09756 2.83906 6.82956 2.66489 6.52973 2.57314C6.29049 2.49994 6.02038 2.49994 5.48017 2.49994C4.68992 2.49994 4.2948 2.49994 3.96311 2.65185C3.57239 2.83079 3.21953 3.21934 3.07894 3.62544C2.95959 3.97018 2.99378 4.32446 3.06215 5.03302C3.78992 12.5751 7.92484 16.71 15.4669 17.4378C16.1755 17.5062 16.5298 17.5403 16.8745 17.421C17.2806 17.2804 17.6691 16.9275 17.8481 16.5368C18 16.2051 18 15.81 18 15.0198C18 14.4796 18 14.2095 17.9268 13.9702C17.8351 13.6704 17.6609 13.4024 17.4242 13.1968C17.2353 13.0327 16.9884 12.923 16.4948 12.7036L15.7398 12.3681C15.2052 12.1305 14.9379 12.0117 14.6663 11.9858C14.4063 11.9611 14.1442 11.9976 13.9009 12.0923C13.6466 12.1913 13.4219 12.3786 12.9725 12.7531C12.5251 13.1259 12.3014 13.3123 12.0281 13.4122C11.7858 13.5007 11.4655 13.5335 11.2103 13.4959C10.9224 13.4535 10.7019 13.3357 10.2611 13.1001C8.88934 12.367 8.13294 11.6106 7.39988 10.2389C7.16428 9.79799 7.04648 9.57755 7.00406 9.28967C6.96645 9.03447 6.99923 8.71412 7.08775 8.47183C7.1876 8.19851 7.37401 7.97482 7.74682 7.52744C8.12135 7.07801 8.30861 6.85329 8.40762 6.59903C8.50237 6.35572 8.53884 6.09361 8.51412 5.83367C8.48828 5.56204 8.36948 5.29474 8.13188 4.76013Z" stroke="#6F6F6F" stroke-width="1.5" stroke-linecap="round"/>
</svg>
