<svg width="50" height="50" viewBox="0 0 50 50" fill="none" xmlns="http://www.w3.org/2000/svg">
<rect x="1" y="1" width="48" height="48" rx="8" fill="#F1F7FC"/>
<rect x="1" y="1" width="48" height="48" rx="8" stroke="#357ABB"/>
<path d="M31.9905 32H32M31.9905 32C31.3678 32.6175 30.2393 32.4637 29.4479 32.4637C28.4765 32.4637 28.0087 32.6537 27.3154 33.347C26.7251 33.9374 25.9337 35 25 35C24.0663 35 23.2749 33.9374 22.6846 33.347C21.9913 32.6537 21.5235 32.4637 20.5521 32.4637C19.7607 32.4637 18.6322 32.6175 18.0095 32C17.3818 31.3776 17.5363 30.2444 17.5363 29.4479C17.5363 28.4414 17.3162 27.9786 16.5994 27.2618C15.5331 26.1956 15 25.6624 15 25C15 24.3375 15.5331 23.8044 16.5994 22.7382C17.2392 22.0983 17.5363 21.4643 17.5363 20.5521C17.5363 19.7607 17.3825 18.6321 18 18.0094C18.6224 17.3818 19.7556 17.5363 20.5521 17.5363C21.4643 17.5363 22.0983 17.2392 22.7382 16.5994C23.8044 15.5331 24.3375 15 25 15C25.6625 15 26.1956 15.5331 27.2618 16.5994C27.9015 17.2391 28.5355 17.5363 29.4479 17.5363C30.2393 17.5363 31.3679 17.3825 31.9906 18C32.6182 18.6224 32.4637 19.7556 32.4637 20.5521C32.4637 21.5586 32.6839 22.0214 33.4006 22.7382C34.4669 23.8044 35 24.3375 35 25C35 25.6624 34.4669 26.1956 33.4006 27.2618C32.6838 27.9786 32.4637 28.4414 32.4637 29.4479C32.4637 30.2444 32.6182 31.3776 31.9905 32Z" stroke="#357ABB" stroke-width="1.5"/>
<path d="M22 25.8929L23.8 27.5L28 22.5" stroke="#357ABB" stroke-width="1.5" stroke-linecap="round" stroke-linejoin="round"/>
</svg>
