<svg width="57" height="56" viewBox="0 0 57 56" fill="none" xmlns="http://www.w3.org/2000/svg">
<circle cx="28.5" cy="28" r="28" fill="#F0F2F5"/>
<path d="M21.5003 25.083C21.5003 21.5392 24.3732 18.6663 27.917 18.6663C31.0562 18.6663 33.671 20.9217 34.2252 23.9008C34.3029 24.3186 34.6016 24.661 35.0049 24.7948C37.3275 25.5651 39.0003 27.7552 39.0003 30.333C39.0003 33.5547 36.3887 36.1663 33.167 36.1663C32.5227 36.1663 32.0003 36.6887 32.0003 37.333C32.0003 37.9773 32.5227 38.4997 33.167 38.4997C37.6773 38.4997 41.3337 34.8433 41.3337 30.333C41.3337 26.9585 39.2876 24.0645 36.371 22.8192C35.373 19.084 31.9674 16.333 27.917 16.333C23.0845 16.333 19.167 20.2505 19.167 25.083C19.167 25.2 19.1693 25.3165 19.1739 25.4325C17.0792 26.641 15.667 28.9043 15.667 31.4997C15.667 35.3657 18.801 38.4997 22.667 38.4997C23.3113 38.4997 23.8337 37.9773 23.8337 37.333C23.8337 36.6887 23.3113 36.1663 22.667 36.1663C20.0897 36.1663 18.0003 34.077 18.0003 31.4997C18.0003 29.5661 19.1765 27.9046 20.8571 27.1966C21.3434 26.9918 21.6316 26.486 21.5601 25.9632C21.5207 25.676 21.5003 25.3822 21.5003 25.083Z" fill="#475367"/>
<path d="M27.7252 30.6277C28.1673 30.2348 28.8334 30.2348 29.2754 30.6277L31.0254 32.1833C31.507 32.6113 31.5504 33.3487 31.1223 33.8303C30.7478 34.2516 30.1366 34.3376 29.667 34.0659V39.6663C29.667 40.3107 29.1447 40.833 28.5003 40.833C27.856 40.833 27.3337 40.3107 27.3337 39.6663V34.0659C26.8641 34.3376 26.2528 34.2516 25.8783 33.8303C25.4503 33.3487 25.4937 32.6113 25.9752 32.1833L27.7252 30.6277Z" fill="#475367"/>
</svg>
