<svg width="49" height="48" viewBox="0 0 49 48" fill="none" xmlns="http://www.w3.org/2000/svg">
<circle cx="24.5" cy="24" r="24" fill="#E7F6EC"/>
<path fill-rule="evenodd" clip-rule="evenodd" d="M24.5 35.25C30.7132 35.25 35.75 30.2132 35.75 24C35.75 17.7868 30.7132 12.75 24.5 12.75C18.2868 12.75 13.25 17.7868 13.25 24C13.25 30.2132 18.2868 35.25 24.5 35.25ZM29.0943 22.4218C29.6034 21.9555 29.6381 21.1649 29.1718 20.6557C28.7055 20.1466 27.9149 20.1119 27.4057 20.5782L22.7907 24.805L21.5943 23.7092C21.0852 23.243 20.2945 23.2777 19.8282 23.7868C19.3619 24.2959 19.3966 25.0866 19.9057 25.5529L21.9464 27.4218C22.4242 27.8594 23.1571 27.8594 23.6349 27.4218L29.0943 22.4218Z" fill="#0F973D"/>
</svg>
