<svg width="217" height="68" viewBox="0 0 217 68" fill="none" xmlns="http://www.w3.org/2000/svg">
<path d="M19.2255 10.4338C19.3756 10.3587 19.5257 10.3587 19.6008 10.3587C20.3515 10.3587 20.952 10.9592 20.952 11.7099C20.952 12.1603 20.877 12.6107 20.6518 13.0611C19.7509 14.4874 18.8501 15.9137 17.8743 17.34C15.7724 20.0424 13.9707 22.895 12.5444 25.9728C11.0431 29.2007 10.2173 32.7289 10.2924 36.3321C10.3675 40.0105 11.4935 43.5386 13.4453 46.6164C15.2469 49.6942 17.8743 52.0964 21.0271 53.6728C22.078 54.1983 23.129 54.7237 24.1799 55.2492C26.432 56.4503 28.2336 58.2519 29.4347 60.5039C30.6358 62.756 31.3114 65.2332 31.4615 67.7105C29.9602 68.1609 28.3087 68.0858 26.8073 67.4852C26.5821 66.9598 26.2818 66.059 25.9065 65.0831C25.1558 62.9061 25.1558 62.9812 24.9306 62.2305C23.9547 59.9785 22.6035 57.9516 20.952 56.3002C20.6518 55.9999 20.2764 55.8498 19.9762 56.15C19.826 56.3002 19.9762 56.7506 20.1263 56.9758C20.877 58.327 21.1022 59.0026 21.7027 59.6031C22.5285 60.3538 23.6545 62.2305 25.1558 67.0348C24.1799 66.8847 23.2791 66.6595 22.3783 66.2842C21.4775 65.9839 20.6518 65.5335 19.826 65.0831C17.3488 62.6058 14.9466 59.9785 12.7696 57.201C11.1932 55.2492 9.76694 53.2224 8.49079 51.0454C5.48808 45.7907 4.36206 39.6351 5.26288 33.6297C5.93849 29.2007 7.51491 24.9218 9.91707 21.1685C11.7187 18.1657 13.8206 15.3882 16.2978 12.8359C17.0485 11.7099 18.0995 10.9592 19.2255 10.4338Z" fill="white"/>
<path d="M19.2255 10.4338C19.3756 10.3587 19.5257 10.3587 19.6008 10.3587C20.3515 10.3587 20.952 10.9592 20.952 11.7099C20.952 12.1603 20.877 12.6107 20.6518 13.0611C19.7509 14.4874 18.8501 15.9137 17.8743 17.34C15.7724 20.0424 13.9707 22.895 12.5444 25.9728C11.0431 29.2007 10.2173 32.7289 10.2924 36.3321C10.3675 40.0105 11.4935 43.5386 13.4453 46.6164C15.2469 49.6942 17.8743 52.0964 21.0271 53.6728C22.078 54.1983 23.129 54.7237 24.1799 55.2492C26.432 56.4503 28.2336 58.2519 29.4347 60.5039C30.6358 62.756 31.3114 65.2332 31.4615 67.7105C29.9602 68.1609 28.3087 68.0858 26.8073 67.4852C26.5821 66.9598 26.2818 66.059 25.9065 65.0831C25.1558 62.9061 25.1558 62.9812 24.9306 62.2305C23.9547 59.9785 22.6035 57.9516 20.952 56.3002C20.6518 55.9999 20.2764 55.8498 19.9762 56.15C19.826 56.3002 19.9762 56.7506 20.1263 56.9758C20.877 58.327 21.1022 59.0026 21.7027 59.6031C22.5285 60.3538 23.6545 62.2305 25.1558 67.0348C24.1799 66.8847 23.2791 66.6595 22.3783 66.2842C21.4775 65.9839 20.6518 65.5335 19.826 65.0831C17.3488 62.6058 14.9466 59.9785 12.7696 57.201C11.1932 55.2492 9.76694 53.2224 8.49079 51.0454C5.48808 45.7907 4.36206 39.6351 5.26288 33.6297C5.93849 29.2007 7.51491 24.9218 9.91707 21.1685C11.7187 18.1657 13.8206 15.3882 16.2978 12.8359C17.0485 11.7099 18.0995 10.9592 19.2255 10.4338Z" fill="#FCFCFD"/>
<path d="M21.5533 33.0294C22.2289 32.8793 22.9045 33.2546 23.0546 33.9303C23.1297 34.3056 23.2047 34.756 23.2798 35.1313C23.8804 39.8606 25.9823 44.2145 29.2852 47.6676C31.1619 49.6194 32.8885 51.6462 34.4649 53.8232C36.1915 56.2254 37.3175 59.0779 37.7679 62.0056C37.9931 63.2817 38.1432 64.5579 38.2183 65.834C36.792 66.4346 35.2156 66.885 33.7142 67.2603C33.489 64.1075 32.5132 60.9546 30.8617 58.2522C29.7356 56.3004 28.0842 54.724 26.0573 53.6731C25.3817 53.4479 24.9313 52.7723 24.8562 52.0966C24.8562 51.9465 24.7812 51.7213 24.7812 51.5712C24.3308 49.4693 23.2798 47.7427 22.2289 45.9411C21.5533 44.5899 20.8776 43.3137 20.2771 41.9625C19.5264 40.3861 19.2262 38.6595 19.3012 36.933C19.3012 35.6568 19.9018 34.3807 20.8777 33.4799C21.1779 33.2546 21.3281 33.1045 21.5533 33.0294Z" fill="white"/>
<path d="M21.5533 33.0294C22.2289 32.8793 22.9045 33.2546 23.0546 33.9303C23.1297 34.3056 23.2047 34.756 23.2798 35.1313C23.8804 39.8606 25.9823 44.2145 29.2852 47.6676C31.1619 49.6194 32.8885 51.6462 34.4649 53.8232C36.1915 56.2254 37.3175 59.0779 37.7679 62.0056C37.9931 63.2817 38.1432 64.5579 38.2183 65.834C36.792 66.4346 35.2156 66.885 33.7142 67.2603C33.489 64.1075 32.5132 60.9546 30.8617 58.2522C29.7356 56.3004 28.0842 54.724 26.0573 53.6731C25.3817 53.4479 24.9313 52.7723 24.8562 52.0966C24.8562 51.9465 24.7812 51.7213 24.7812 51.5712C24.3308 49.4693 23.2798 47.7427 22.2289 45.9411C21.5533 44.5899 20.8776 43.3137 20.2771 41.9625C19.5264 40.3861 19.2262 38.6595 19.3012 36.933C19.3012 35.6568 19.9018 34.3807 20.8777 33.4799C21.1779 33.2546 21.3281 33.1045 21.5533 33.0294Z" fill="#FCFCFD"/>
<path d="M20.7257 50.896C17.7981 48.8691 15.471 46.0166 14.1197 42.7136C12.4682 38.735 12.243 34.3811 13.4441 30.2523C14.42 26.8743 15.9964 23.7965 18.2485 21.0941C18.9991 20.1933 19.9 19.2925 20.8008 18.5418C21.101 18.1664 21.6265 18.0914 21.9268 18.3916C22.227 18.767 22.5273 19.2174 22.6024 19.6678C22.6775 19.9681 22.6024 20.3434 22.3772 20.5686C21.7016 21.6946 21.026 22.8206 20.2002 23.8716C17.0474 27.8502 15.6211 32.8797 16.2216 37.9093C16.7471 41.6626 18.1734 45.2659 20.4254 48.3437C21.101 49.2445 21.5514 50.2954 21.7016 51.4214C21.4013 51.2713 21.101 51.0461 20.7257 50.896Z" fill="white"/>
<path d="M20.7257 50.896C17.7981 48.8691 15.471 46.0166 14.1197 42.7136C12.4682 38.735 12.243 34.3811 13.4441 30.2523C14.42 26.8743 15.9964 23.7965 18.2485 21.0941C18.9991 20.1933 19.9 19.2925 20.8008 18.5418C21.101 18.1664 21.6265 18.0914 21.9268 18.3916C22.227 18.767 22.5273 19.2174 22.6024 19.6678C22.6775 19.9681 22.6024 20.3434 22.3772 20.5686C21.7016 21.6946 21.026 22.8206 20.2002 23.8716C17.0474 27.8502 15.6211 32.8797 16.2216 37.9093C16.7471 41.6626 18.1734 45.2659 20.4254 48.3437C21.101 49.2445 21.5514 50.2954 21.7016 51.4214C21.4013 51.2713 21.101 51.0461 20.7257 50.896Z" fill="#FCFCFD"/>
<path d="M5.18595 52.3215C3.6846 50.3697 2.48351 48.1928 1.65777 45.8657C0.531753 42.863 -0.0687861 39.6351 0.00628165 36.3321C0.0813494 33.3294 0.681889 30.4017 1.65777 27.5491C2.70872 24.5464 4.05994 21.6939 5.78649 18.9914C6.16183 18.3909 6.61224 17.8654 7.13772 17.415C7.43799 17.0397 7.96346 16.9646 8.41387 17.2649C8.7892 17.5651 8.86427 18.0906 8.63907 18.541C8.48893 18.9164 8.3388 19.2917 8.1136 19.667C7.21279 21.3185 6.16183 22.97 5.41116 24.6966C3.53446 28.8253 2.55858 33.4044 2.63365 37.9836C2.63365 43.0131 3.98488 48.0426 6.46211 52.3966C6.61225 52.6218 6.68731 52.847 6.83745 53.0722C6.0117 53.2974 5.56129 52.847 5.18595 52.3215Z" fill="white"/>
<path d="M5.18595 52.3215C3.6846 50.3697 2.48351 48.1928 1.65777 45.8657C0.531753 42.863 -0.0687861 39.6351 0.00628165 36.3321C0.0813494 33.3294 0.681889 30.4017 1.65777 27.5491C2.70872 24.5464 4.05994 21.6939 5.78649 18.9914C6.16183 18.3909 6.61224 17.8654 7.13772 17.415C7.43799 17.0397 7.96346 16.9646 8.41387 17.2649C8.7892 17.5651 8.86427 18.0906 8.63907 18.541C8.48893 18.9164 8.3388 19.2917 8.1136 19.667C7.21279 21.3185 6.16183 22.97 5.41116 24.6966C3.53446 28.8253 2.55858 33.4044 2.63365 37.9836C2.63365 43.0131 3.98488 48.0426 6.46211 52.3966C6.61225 52.6218 6.68731 52.847 6.83745 53.0722C6.0117 53.2974 5.56129 52.847 5.18595 52.3215Z" fill="#FCFCFD"/>
<path d="M31.985 34.907C31.9099 34.907 31.9099 34.832 31.8349 34.832C31.6847 34.6818 31.3845 34.4566 31.3094 34.2314C31.2343 33.781 31.3094 33.3306 31.5346 32.9553C31.7598 32.5799 31.9099 32.2797 32.0601 31.9043C32.2102 31.4539 32.5105 31.1537 32.9609 31.0035C33.4113 30.8534 33.9368 30.6282 34.3872 30.4781C34.6875 30.403 34.8376 30.2529 34.7625 29.8775C34.6875 29.4271 34.7625 28.9767 34.9127 28.6014C35.288 28.0759 35.9636 27.9257 36.4891 28.3011C36.9395 28.6014 37.0896 29.2019 36.8644 29.6523C36.7894 29.8024 36.7143 30.0276 36.6392 30.1778C36.3389 30.7783 36.3389 30.7783 36.7893 31.2287C37.3899 31.8293 37.3899 31.8293 37.54 32.8802L38.7411 32.2046C38.4408 31.8293 38.2156 31.4539 38.0655 31.0035C37.9904 30.6282 37.9904 30.2529 38.1406 29.8775C38.2907 29.4271 39.1915 29.352 39.717 29.6523C40.1674 29.9526 40.3926 30.4781 40.1674 31.0035C40.0173 31.3038 39.9422 31.6041 39.7921 31.8293C39.7921 31.9043 39.8671 32.0545 39.9422 32.1295C40.1674 32.2797 40.3926 32.3547 40.6178 32.4298C41.2934 32.655 41.8189 33.2556 41.969 33.9312C42.2693 34.6818 42.6446 35.3575 42.9449 36.0331C43.1701 36.4835 43.3202 37.0089 43.4704 37.5344C43.4704 37.6095 43.5454 37.6846 43.5454 37.6846C43.9208 38.135 43.9208 38.5103 43.3953 39.0358C43.3953 38.8856 43.3202 38.7355 43.3202 38.6604C43.02 38.8106 43.02 38.5854 42.9449 38.4352C42.5696 37.5344 42.1192 36.6336 41.5186 35.8079C41.4435 35.7328 41.3685 35.7328 41.3685 35.6577C41.5937 36.1081 41.7438 36.4084 41.894 36.7087C42.0441 37.1591 42.1942 37.6095 42.3444 38.0599C42.3444 38.135 42.3444 38.21 42.2693 38.2851C41.894 38.7355 41.6687 39.336 41.6687 39.8615C41.4435 41.2127 41.2934 42.564 41.1433 43.9152C41.1433 44.1404 40.9931 44.3656 40.9931 44.5908C40.9931 44.816 40.9931 45.1913 40.9181 45.4916C40.9181 45.8669 40.9181 46.1672 40.7679 46.5425C40.5427 46.7677 40.2425 46.8428 39.9422 46.7678C39.717 46.6927 39.4918 46.5426 39.4167 46.3173C39.3416 45.942 39.1915 45.6417 38.9663 45.4165C38.8162 45.1913 38.7411 44.9661 38.7411 44.7409C38.666 44.3656 38.591 44.0653 38.4408 43.69C38.2907 43.1645 38.1406 42.639 37.9904 42.1886C37.8403 41.2878 37.6902 40.3119 37.54 39.336C37.1647 39.336 36.7894 39.336 36.8644 38.8106C36.7894 39.8615 36.7143 40.9125 36.7143 41.9634C36.7143 42.639 36.6392 43.3146 36.4891 43.9902C36.2639 44.5908 36.2639 45.1913 36.414 45.7919C36.4891 46.0171 36.7143 46.1672 36.9395 46.4675C36.6392 46.5425 36.3389 46.6927 36.0387 46.7678C35.9636 46.7678 35.8135 46.7678 35.7384 46.7678C35.1379 46.7678 35.0628 46.7677 35.0628 46.1672C34.9877 45.4916 34.9127 44.8911 34.9877 44.2154C35.1379 43.0144 35.0628 41.7382 34.9127 40.5371C34.9127 40.0867 34.7625 39.7114 34.6124 39.261C34.5373 39.5612 34.5373 39.8615 34.4622 40.1618C34.4622 40.6122 34.3872 41.0626 34.3121 41.513C34.162 42.3388 34.162 43.2396 34.3121 44.0653C34.3121 44.2155 34.3872 44.3656 34.4622 44.5157C34.5373 44.7409 34.6124 44.9661 34.6124 45.2664C34.6124 45.5667 34.7625 45.8669 34.7625 46.1672C34.7625 46.3173 34.7625 46.6176 34.6874 46.6927C34.3872 46.8428 34.0869 46.8428 33.7866 46.8428C33.7116 46.8428 33.5614 46.5425 33.5614 46.3924C33.5614 45.942 33.4864 45.4165 33.2612 45.0412C33.2612 44.9661 33.2612 44.9661 33.2612 44.8911C33.3362 43.8401 32.8108 42.9393 32.6606 41.8883C32.5856 41.2127 32.5855 40.6122 32.5855 39.9366C32.5855 39.4862 32.5105 39.1108 32.5105 38.6604C32.5105 38.21 32.2853 37.8347 31.985 37.5344C31.8349 37.3843 31.7598 37.2341 31.7598 37.084C31.7598 36.6336 31.8349 36.1832 31.8349 35.7328C31.8349 35.6577 31.8349 35.5076 31.8349 35.3575C31.8349 35.2073 31.985 35.1323 31.985 34.907ZM39.7921 43.69H39.9422C39.8671 43.2396 39.8671 42.7892 39.7921 42.2637H39.717L39.7921 43.69Z" fill="white"/>
<path d="M31.985 34.907C31.9099 34.907 31.9099 34.832 31.8349 34.832C31.6847 34.6818 31.3845 34.4566 31.3094 34.2314C31.2343 33.781 31.3094 33.3306 31.5346 32.9553C31.7598 32.5799 31.9099 32.2797 32.0601 31.9043C32.2102 31.4539 32.5105 31.1537 32.9609 31.0035C33.4113 30.8534 33.9368 30.6282 34.3872 30.4781C34.6875 30.403 34.8376 30.2529 34.7625 29.8775C34.6875 29.4271 34.7625 28.9767 34.9127 28.6014C35.288 28.0759 35.9636 27.9257 36.4891 28.3011C36.9395 28.6014 37.0896 29.2019 36.8644 29.6523C36.7894 29.8024 36.7143 30.0276 36.6392 30.1778C36.3389 30.7783 36.3389 30.7783 36.7893 31.2287C37.3899 31.8293 37.3899 31.8293 37.54 32.8802L38.7411 32.2046C38.4408 31.8293 38.2156 31.4539 38.0655 31.0035C37.9904 30.6282 37.9904 30.2529 38.1406 29.8775C38.2907 29.4271 39.1915 29.352 39.717 29.6523C40.1674 29.9526 40.3926 30.4781 40.1674 31.0035C40.0173 31.3038 39.9422 31.6041 39.7921 31.8293C39.7921 31.9043 39.8671 32.0545 39.9422 32.1295C40.1674 32.2797 40.3926 32.3547 40.6178 32.4298C41.2934 32.655 41.8189 33.2556 41.969 33.9312C42.2693 34.6818 42.6446 35.3575 42.9449 36.0331C43.1701 36.4835 43.3202 37.0089 43.4704 37.5344C43.4704 37.6095 43.5454 37.6846 43.5454 37.6846C43.9208 38.135 43.9208 38.5103 43.3953 39.0358C43.3953 38.8856 43.3202 38.7355 43.3202 38.6604C43.02 38.8106 43.02 38.5854 42.9449 38.4352C42.5696 37.5344 42.1192 36.6336 41.5186 35.8079C41.4435 35.7328 41.3685 35.7328 41.3685 35.6577C41.5937 36.1081 41.7438 36.4084 41.894 36.7087C42.0441 37.1591 42.1942 37.6095 42.3444 38.0599C42.3444 38.135 42.3444 38.21 42.2693 38.2851C41.894 38.7355 41.6687 39.336 41.6687 39.8615C41.4435 41.2127 41.2934 42.564 41.1433 43.9152C41.1433 44.1404 40.9931 44.3656 40.9931 44.5908C40.9931 44.816 40.9931 45.1913 40.9181 45.4916C40.9181 45.8669 40.9181 46.1672 40.7679 46.5425C40.5427 46.7677 40.2425 46.8428 39.9422 46.7678C39.717 46.6927 39.4918 46.5426 39.4167 46.3173C39.3416 45.942 39.1915 45.6417 38.9663 45.4165C38.8162 45.1913 38.7411 44.9661 38.7411 44.7409C38.666 44.3656 38.591 44.0653 38.4408 43.69C38.2907 43.1645 38.1406 42.639 37.9904 42.1886C37.8403 41.2878 37.6902 40.3119 37.54 39.336C37.1647 39.336 36.7894 39.336 36.8644 38.8106C36.7894 39.8615 36.7143 40.9125 36.7143 41.9634C36.7143 42.639 36.6392 43.3146 36.4891 43.9902C36.2639 44.5908 36.2639 45.1913 36.414 45.7919C36.4891 46.0171 36.7143 46.1672 36.9395 46.4675C36.6392 46.5425 36.3389 46.6927 36.0387 46.7678C35.9636 46.7678 35.8135 46.7678 35.7384 46.7678C35.1379 46.7678 35.0628 46.7677 35.0628 46.1672C34.9877 45.4916 34.9127 44.8911 34.9877 44.2154C35.1379 43.0144 35.0628 41.7382 34.9127 40.5371C34.9127 40.0867 34.7625 39.7114 34.6124 39.261C34.5373 39.5612 34.5373 39.8615 34.4622 40.1618C34.4622 40.6122 34.3872 41.0626 34.3121 41.513C34.162 42.3388 34.162 43.2396 34.3121 44.0653C34.3121 44.2155 34.3872 44.3656 34.4622 44.5157C34.5373 44.7409 34.6124 44.9661 34.6124 45.2664C34.6124 45.5667 34.7625 45.8669 34.7625 46.1672C34.7625 46.3173 34.7625 46.6176 34.6874 46.6927C34.3872 46.8428 34.0869 46.8428 33.7866 46.8428C33.7116 46.8428 33.5614 46.5425 33.5614 46.3924C33.5614 45.942 33.4864 45.4165 33.2612 45.0412C33.2612 44.9661 33.2612 44.9661 33.2612 44.8911C33.3362 43.8401 32.8108 42.9393 32.6606 41.8883C32.5856 41.2127 32.5855 40.6122 32.5855 39.9366C32.5855 39.4862 32.5105 39.1108 32.5105 38.6604C32.5105 38.21 32.2853 37.8347 31.985 37.5344C31.8349 37.3843 31.7598 37.2341 31.7598 37.084C31.7598 36.6336 31.8349 36.1832 31.8349 35.7328C31.8349 35.6577 31.8349 35.5076 31.8349 35.3575C31.8349 35.2073 31.985 35.1323 31.985 34.907ZM39.7921 43.69H39.9422C39.8671 43.2396 39.8671 42.7892 39.7921 42.2637H39.717L39.7921 43.69Z" fill="#FCFCFD"/>
<path d="M47.5996 46.0918C47.5246 46.0168 47.5246 46.0168 47.5246 45.9417L46.9991 45.191L45.5728 43.0141L44.1465 40.9122L42.7202 38.8103L41.5192 37.0837C41.5192 37.0837 41.5191 37.0086 41.4441 37.0086C41.4441 37.0086 41.4441 36.9336 41.369 36.9336C41.2939 36.8585 41.2939 36.7834 41.2939 36.6333V36.5582C41.2939 36.4832 41.2939 36.333 41.369 36.258C41.369 36.1829 41.369 36.1829 41.4441 36.1078C41.5191 36.0328 41.5942 35.8826 41.6693 35.8076" fill="white"/>
<path d="M47.5996 46.0918C47.5246 46.0168 47.5246 46.0168 47.5246 45.9417L46.9991 45.191L45.5728 43.0141L44.1465 40.9122L42.7202 38.8103L41.5192 37.0837C41.5192 37.0837 41.5191 37.0086 41.4441 37.0086C41.4441 37.0086 41.4441 36.9336 41.369 36.9336C41.2939 36.8585 41.2939 36.7834 41.2939 36.6333V36.5582C41.2939 36.4832 41.2939 36.333 41.369 36.258C41.369 36.1829 41.369 36.1829 41.4441 36.1078C41.5191 36.0328 41.5942 35.8826 41.6693 35.8076" fill="#FCFCFD"/>
<path d="M47.5996 46.0918C47.5246 46.0168 47.5246 46.0168 47.5246 45.9417L46.9991 45.191L45.5728 43.0141L44.1465 40.9122L42.7202 38.8103L41.5192 37.0837C41.5192 37.0837 41.5191 37.0086 41.4441 37.0086C41.4441 37.0086 41.4441 36.9336 41.369 36.9336C41.2939 36.8585 41.2939 36.7834 41.2939 36.6333V36.5582C41.2939 36.4832 41.2939 36.333 41.369 36.258C41.369 36.1829 41.369 36.1829 41.4441 36.1078C41.5191 36.0328 41.5942 35.8826 41.6693 35.8076" stroke="#FCFCFD" stroke-width="0.5" stroke-miterlimit="10"/>
<path d="M29.7334 46.8423C29.7334 46.7673 29.7334 46.7673 29.7334 46.6922L29.8835 45.7914L30.2589 43.3892L30.6342 40.9871L31.0095 38.5849L31.3098 36.6331V36.5581V36.483C31.3098 36.4079 31.3849 36.3329 31.4599 36.2578L31.535 36.1827C31.6101 36.1077 31.6852 36.0326 31.7602 36.0326C31.8353 36.0326 31.8353 35.9575 31.9104 35.9575C32.0605 35.9575 32.1356 35.9575 32.2857 35.9575" fill="white"/>
<path d="M29.7334 46.8423C29.7334 46.7673 29.7334 46.7673 29.7334 46.6922L29.8835 45.7914L30.2589 43.3892L30.6342 40.9871L31.0095 38.5849L31.3098 36.6331V36.5581V36.483C31.3098 36.4079 31.3849 36.3329 31.4599 36.2578L31.535 36.1827C31.6101 36.1077 31.6852 36.0326 31.7602 36.0326C31.8353 36.0326 31.8353 35.9575 31.9104 35.9575C32.0605 35.9575 32.1356 35.9575 32.2857 35.9575" fill="#FCFCFD"/>
<path d="M29.7334 46.8423C29.7334 46.7673 29.7334 46.7673 29.7334 46.6922L29.8835 45.7914L30.2589 43.3892L30.6342 40.9871L31.0095 38.5849L31.3098 36.6331V36.5581V36.483C31.3098 36.4079 31.3849 36.3329 31.4599 36.2578L31.535 36.1827C31.6101 36.1077 31.6852 36.0326 31.7602 36.0326C31.8353 36.0326 31.8353 35.9575 31.9104 35.9575C32.0605 35.9575 32.1356 35.9575 32.2857 35.9575" stroke="#FCFCFD" stroke-width="0.5" stroke-miterlimit="10"/>
<path d="M68.3947 14.6382C68.4698 14.2629 68.3947 13.8125 68.2446 13.4371C68.0944 13.1369 67.9443 12.9867 67.8692 12.9867C67.7942 12.9867 67.7942 13.287 67.4188 13.7374C67.0435 14.1878 66.9684 14.1127 66.8934 14.3379C66.8183 14.4881 66.8183 14.6382 66.8183 14.7883L67.0435 14.8634H66.8934H66.8183C65.8424 15.0886 64.8665 15.3889 63.8906 15.7642C63.9657 15.464 63.9657 15.1637 63.8906 14.9385C63.8156 14.7133 63.6654 14.7133 63.5153 14.413C63.14 13.8875 63.2901 13.4371 63.0649 13.3621C62.8397 13.287 62.3142 14.1127 62.3142 14.9385C62.3142 15.3889 62.4644 15.8393 62.6896 16.2146H62.7646V16.2897C62.5394 16.3648 62.3893 16.5149 62.1641 16.59C61.3383 16.9653 60.5877 17.4908 59.837 18.0163L59.7619 18.0913C59.9121 17.1905 59.9871 16.4398 60.0622 15.7642C60.1373 14.8634 60.1373 13.9626 60.0622 13.1369V12.9867H59.9871L60.0622 12.7615V12.9867C60.4375 12.9116 60.7378 12.7615 61.0381 12.5363C61.1131 12.4612 61.1882 12.3111 61.2633 12.236C61.3383 11.9358 61.1882 11.7856 61.3383 11.3352C61.4885 10.8848 61.7137 10.6596 61.6386 10.5845C61.5635 10.5095 61.2633 10.5095 60.963 10.6596C60.5877 10.8098 60.2874 11.035 60.0622 11.3352C59.9871 11.4103 59.9121 11.5604 59.837 11.7106C59.5367 10.3593 59.0112 9.08319 58.2606 7.88211C58.1855 7.73198 58.0354 7.50677 57.9603 7.35664C57.7351 7.05637 57.5849 6.7561 57.3597 6.45582C57.5099 6.23062 57.66 6.00542 57.7351 5.78021C58.0354 5.02954 57.8852 4.12872 57.585 4.05366C57.5099 4.05366 57.4348 4.05366 57.1346 4.35393C56.8343 4.57913 56.534 4.8794 56.3088 5.17967C56.2337 5.32981 56.1587 5.47994 56.1587 5.63008C56.1587 5.70515 56.1587 5.78021 56.1587 5.78021C56.0836 6.30569 56.2337 6.75609 56.534 6.90623C56.6841 6.9813 56.9093 6.90623 56.9844 6.83116C57.1345 6.9813 57.2847 7.2065 57.3597 7.4317L57.7351 7.95718C58.3356 9.0832 58.8611 10.2092 59.1614 11.4103L59.2364 11.7856C59.3866 12.5363 59.5367 13.287 59.5367 14.0377C59.5367 14.5631 59.5367 15.0886 59.5367 15.539C59.5367 15.7642 59.5367 15.9894 59.5367 16.2146C59.5367 16.9653 59.3866 17.791 59.3115 18.5417L58.786 18.9171C58.1104 19.4425 57.5099 20.0431 56.9093 20.7187C56.6841 21.019 56.3839 21.2442 56.1587 21.5444C55.7083 22.0699 55.3329 22.6705 54.9576 23.1959C54.6573 22.2951 54.2069 21.4694 53.6064 20.7938L52.9308 20.1932L52.6305 20.0431L52.7055 19.8929C52.3302 19.5176 51.9549 19.0672 51.6546 18.6168C52.3302 18.0163 52.9308 17.4157 53.5313 16.7401C53.9066 16.2897 54.2069 15.9144 54.5072 15.464C54.8825 14.9385 55.1828 14.413 55.4831 13.8875C55.6332 13.5873 55.7833 13.3621 55.8584 13.1369C56.4589 13.7374 57.4348 13.7374 57.5099 13.5873C57.585 13.4371 57.4348 13.4371 57.2847 13.2119C56.9093 12.6864 57.1345 12.3111 56.9093 11.9358C56.6841 11.6355 56.4589 11.4854 56.0836 11.4103H56.0085H55.9335C55.7083 11.3352 55.4831 11.4103 55.2579 11.5604C55.0327 11.7856 55.1077 12.161 55.408 12.6114C55.2579 12.9116 55.0327 13.287 54.8825 13.6623C54.357 14.7133 53.6814 15.6141 52.9308 16.5149L52.5554 16.9653C52.105 17.4908 51.7297 17.9412 51.3543 18.3165C51.1291 18.0163 50.9039 17.6409 50.6787 17.2656C50.3785 16.8152 50.1532 16.2897 49.928 15.7642V15.6892L50.1532 15.464C50.3785 15.2387 50.5286 15.0135 50.7538 14.7883C51.4294 14.1127 52.0299 13.4371 52.6305 12.8366L52.7806 12.6864C53.0058 12.5363 53.156 12.3111 53.3812 12.161C53.3812 11.9358 53.3812 11.7856 53.3812 11.5604C53.3812 11.3352 53.231 11.11 53.0809 10.9599C52.8557 10.8098 52.6305 10.9599 52.2551 10.7347C52.1801 10.6596 52.105 10.5845 52.0299 10.5095C51.8047 10.2092 51.8047 9.90894 51.7297 9.90894C51.6546 9.90894 51.3543 10.7347 51.6546 11.4854L51.7297 11.6355C51.8047 11.8607 51.9549 12.0108 52.105 12.236C51.9549 12.3111 51.8798 12.4612 51.7297 12.5363C51.4294 12.7615 51.2042 12.9867 50.979 13.2119C50.3784 13.8125 50.0031 14.5631 49.7779 15.3889C49.6278 15.0135 49.4776 14.6382 49.3275 14.1878C48.8771 13.2119 48.2015 12.3111 47.3757 11.5604C46.7752 11.035 46.0996 10.5095 45.424 9.98401L45.1988 9.90894C45.1988 9.90894 45.1988 9.90894 45.1988 9.83387C45.2738 9.5336 45.2738 9.3084 45.3489 9.00813C45.424 8.33252 45.499 7.65691 45.5741 6.90623C45.7242 6.75609 45.8744 6.68103 46.0245 6.53089C46.6251 6.08049 47.2256 5.63008 47.9012 5.32981C48.0514 5.47994 48.2766 5.47994 48.4267 5.47994C48.8771 5.47994 49.1774 4.8794 49.6278 4.95447C49.7028 4.95447 49.853 5.02954 49.928 5.10461L50.0031 4.95447C49.7779 4.57913 49.4776 4.27886 49.0272 4.05366C48.2015 3.75339 47.4508 3.82845 47.3007 4.20379C47.2256 4.429 47.3007 4.72927 47.4508 4.8794C46.8503 5.32981 46.1747 5.78021 45.6492 6.23062C45.6492 5.85528 45.6492 5.40488 45.6492 5.02954C45.6492 4.20379 45.499 3.37805 45.424 2.62737C45.3489 2.25203 45.2738 1.95176 45.1988 1.65149C45.424 1.65149 45.7243 1.50135 45.7993 1.27615C45.9495 0.825745 45.2738 0 44.6733 0C44.2229 0 43.9226 0.600542 43.4722 0.525474C43.3971 0.525474 43.247 0.450406 43.1719 0.375339L43.0969 0.525474C43.3221 0.900813 43.6224 1.20108 44.0728 1.42629C44.2229 1.50135 44.373 1.50135 44.5232 1.57642C44.5982 1.80163 44.6733 2.1019 44.6733 2.3271C44.8985 3.60325 45.0486 4.8794 45.0486 6.15555C45.0486 6.30569 45.0486 6.53089 45.0486 6.68103C45.0486 6.83116 45.0486 6.90623 45.0486 6.9813C45.0486 7.05637 45.0486 7.2065 45.0486 7.35664C45.0486 8.10731 44.9736 8.78292 44.8234 9.5336L44.298 9.15826L43.7725 8.78292L43.3221 8.48265L42.1961 7.73198C42.4963 8.03225 42.7966 8.40759 43.0969 8.70786C43.247 8.85799 43.3221 9.00813 43.3972 9.15826L43.4722 9.23333L43.8476 9.38347L43.7725 9.60867C44.0728 9.90894 44.298 10.2843 44.5232 10.5845C44.6733 10.7347 44.7484 10.8848 44.8234 11.035C45.424 11.7856 45.9495 12.6114 46.4749 13.4371C46.7001 13.7374 46.8503 14.0377 47.0755 14.3379C47.6009 15.2387 48.1264 16.2146 48.5768 17.1905C48.6519 17.3406 48.727 17.5658 48.802 17.716C48.8771 17.8661 48.8771 17.9412 48.9522 18.0163C49.1023 18.3165 49.1774 18.6168 49.3275 18.842C49.4776 19.0672 49.5527 19.4425 49.7028 19.7428C49.7028 19.8179 49.7779 19.968 49.7779 20.0431C50.1532 21.019 50.4535 22.0699 50.7538 23.1209C50.8289 23.3461 50.9039 23.6463 50.979 23.8715C51.2042 24.9225 51.4294 25.9734 51.5795 27.0244C51.6546 27.7 51.7297 28.4507 51.8047 29.1263C51.8047 29.3515 51.8047 29.5767 51.8798 29.8019C51.8798 30.1022 51.8798 30.4775 51.9549 30.7778C51.9549 31.3032 51.9549 31.7536 51.9549 32.2791C51.9549 33.0298 51.8798 33.7054 51.8798 34.381C51.8047 35.5821 51.6546 36.7081 51.4294 37.8341C51.2042 38.9602 50.979 40.0862 50.6036 41.1371C50.3034 42.0379 50.0031 43.0138 49.6278 43.9146L49.4776 44.29C49.0272 45.3409 48.5768 46.3919 48.0514 47.3677C47.5259 48.3436 46.9253 49.3946 46.2497 50.2954C45.5741 51.2713 44.8985 52.1721 44.0728 53.0729C43.7725 53.3732 43.5473 53.6734 43.247 53.9737C42.7215 54.5742 42.121 55.0997 41.5205 55.7003C40.6196 56.6011 39.6438 57.4268 38.5928 58.2526C38.2175 58.5528 37.8421 58.778 37.4668 59.0032C37.9923 59.829 38.2926 60.8049 38.3676 61.7807C38.4427 62.9818 38.4427 64.1829 38.2175 65.384L38.2925 65.4591C38.4427 65.384 38.5928 65.3089 38.743 65.2339C39.869 64.6333 40.9199 63.9577 41.9709 63.2821C42.8717 62.6816 43.7725 61.9309 44.6733 61.2553L44.8234 60.8049L45.0486 60.8799C46.8503 59.3035 48.5018 57.5019 50.0031 55.5501C50.6787 54.6493 51.3543 53.6734 51.8798 52.6975C52.4804 51.7217 53.0058 50.7458 53.4562 49.6948C53.6814 49.1694 53.9817 48.5688 54.2069 47.9683C54.4321 47.3677 54.5822 46.9924 54.7324 46.542C55.1077 45.491 55.408 44.365 55.6332 43.239C55.8584 42.113 56.0836 40.987 56.2337 39.7859C56.3839 38.5848 56.4589 37.3837 56.4589 36.2577C56.4589 35.1317 56.4589 33.7805 56.3839 32.5794L56.0836 32.4293L56.3839 31.7537C56.3088 30.7027 56.1587 29.7268 56.0085 28.7509C55.7833 27.3997 55.4831 26.0485 55.1077 24.7724L54.8074 24.6973L54.9576 24.3219L55.0327 24.6222C55.5581 23.6463 56.1587 22.6705 56.7592 21.8447C57.1346 21.3192 57.4348 20.9439 57.7351 20.5686C58.0354 20.1932 58.2606 19.968 58.5608 19.6677C58.711 19.5176 58.9362 19.2924 59.0863 19.1423L59.2364 18.9921C59.912 18.3916 60.5877 17.8661 61.3383 17.4157C61.6386 17.2656 61.9389 17.0404 62.2391 16.9653L62.3142 16.8152L62.4644 16.8902C63.8156 16.2146 65.2419 15.7642 66.6681 15.539C66.7432 15.6892 66.8183 15.8393 66.9684 15.9894C67.0435 16.0645 67.1185 16.0645 67.1185 16.0645C67.4188 16.1396 67.7191 15.8393 67.8692 15.3889C68.2446 15.1637 68.3947 14.8634 68.3947 14.6382Z" fill="white"/>
<path d="M68.3947 14.6382C68.4698 14.2629 68.3947 13.8125 68.2446 13.4371C68.0944 13.1369 67.9443 12.9867 67.8692 12.9867C67.7942 12.9867 67.7942 13.287 67.4188 13.7374C67.0435 14.1878 66.9684 14.1127 66.8934 14.3379C66.8183 14.4881 66.8183 14.6382 66.8183 14.7883L67.0435 14.8634H66.8934H66.8183C65.8424 15.0886 64.8665 15.3889 63.8906 15.7642C63.9657 15.464 63.9657 15.1637 63.8906 14.9385C63.8156 14.7133 63.6654 14.7133 63.5153 14.413C63.14 13.8875 63.2901 13.4371 63.0649 13.3621C62.8397 13.287 62.3142 14.1127 62.3142 14.9385C62.3142 15.3889 62.4644 15.8393 62.6896 16.2146H62.7646V16.2897C62.5394 16.3648 62.3893 16.5149 62.1641 16.59C61.3383 16.9653 60.5877 17.4908 59.837 18.0163L59.7619 18.0913C59.9121 17.1905 59.9871 16.4398 60.0622 15.7642C60.1373 14.8634 60.1373 13.9626 60.0622 13.1369V12.9867H59.9871L60.0622 12.7615V12.9867C60.4375 12.9116 60.7378 12.7615 61.0381 12.5363C61.1131 12.4612 61.1882 12.3111 61.2633 12.236C61.3383 11.9358 61.1882 11.7856 61.3383 11.3352C61.4885 10.8848 61.7137 10.6596 61.6386 10.5845C61.5635 10.5095 61.2633 10.5095 60.963 10.6596C60.5877 10.8098 60.2874 11.035 60.0622 11.3352C59.9871 11.4103 59.9121 11.5604 59.837 11.7106C59.5367 10.3593 59.0112 9.08319 58.2606 7.88211C58.1855 7.73198 58.0354 7.50677 57.9603 7.35664C57.7351 7.05637 57.5849 6.7561 57.3597 6.45582C57.5099 6.23062 57.66 6.00542 57.7351 5.78021C58.0354 5.02954 57.8852 4.12872 57.585 4.05366C57.5099 4.05366 57.4348 4.05366 57.1346 4.35393C56.8343 4.57913 56.534 4.8794 56.3088 5.17967C56.2337 5.32981 56.1587 5.47994 56.1587 5.63008C56.1587 5.70515 56.1587 5.78021 56.1587 5.78021C56.0836 6.30569 56.2337 6.75609 56.534 6.90623C56.6841 6.9813 56.9093 6.90623 56.9844 6.83116C57.1345 6.9813 57.2847 7.2065 57.3597 7.4317L57.7351 7.95718C58.3356 9.0832 58.8611 10.2092 59.1614 11.4103L59.2364 11.7856C59.3866 12.5363 59.5367 13.287 59.5367 14.0377C59.5367 14.5631 59.5367 15.0886 59.5367 15.539C59.5367 15.7642 59.5367 15.9894 59.5367 16.2146C59.5367 16.9653 59.3866 17.791 59.3115 18.5417L58.786 18.9171C58.1104 19.4425 57.5099 20.0431 56.9093 20.7187C56.6841 21.019 56.3839 21.2442 56.1587 21.5444C55.7083 22.0699 55.3329 22.6705 54.9576 23.1959C54.6573 22.2951 54.2069 21.4694 53.6064 20.7938L52.9308 20.1932L52.6305 20.0431L52.7055 19.8929C52.3302 19.5176 51.9549 19.0672 51.6546 18.6168C52.3302 18.0163 52.9308 17.4157 53.5313 16.7401C53.9066 16.2897 54.2069 15.9144 54.5072 15.464C54.8825 14.9385 55.1828 14.413 55.4831 13.8875C55.6332 13.5873 55.7833 13.3621 55.8584 13.1369C56.4589 13.7374 57.4348 13.7374 57.5099 13.5873C57.585 13.4371 57.4348 13.4371 57.2847 13.2119C56.9093 12.6864 57.1345 12.3111 56.9093 11.9358C56.6841 11.6355 56.4589 11.4854 56.0836 11.4103H56.0085H55.9335C55.7083 11.3352 55.4831 11.4103 55.2579 11.5604C55.0327 11.7856 55.1077 12.161 55.408 12.6114C55.2579 12.9116 55.0327 13.287 54.8825 13.6623C54.357 14.7133 53.6814 15.6141 52.9308 16.5149L52.5554 16.9653C52.105 17.4908 51.7297 17.9412 51.3543 18.3165C51.1291 18.0163 50.9039 17.6409 50.6787 17.2656C50.3785 16.8152 50.1532 16.2897 49.928 15.7642V15.6892L50.1532 15.464C50.3785 15.2387 50.5286 15.0135 50.7538 14.7883C51.4294 14.1127 52.0299 13.4371 52.6305 12.8366L52.7806 12.6864C53.0058 12.5363 53.156 12.3111 53.3812 12.161C53.3812 11.9358 53.3812 11.7856 53.3812 11.5604C53.3812 11.3352 53.231 11.11 53.0809 10.9599C52.8557 10.8098 52.6305 10.9599 52.2551 10.7347C52.1801 10.6596 52.105 10.5845 52.0299 10.5095C51.8047 10.2092 51.8047 9.90894 51.7297 9.90894C51.6546 9.90894 51.3543 10.7347 51.6546 11.4854L51.7297 11.6355C51.8047 11.8607 51.9549 12.0108 52.105 12.236C51.9549 12.3111 51.8798 12.4612 51.7297 12.5363C51.4294 12.7615 51.2042 12.9867 50.979 13.2119C50.3784 13.8125 50.0031 14.5631 49.7779 15.3889C49.6278 15.0135 49.4776 14.6382 49.3275 14.1878C48.8771 13.2119 48.2015 12.3111 47.3757 11.5604C46.7752 11.035 46.0996 10.5095 45.424 9.98401L45.1988 9.90894C45.1988 9.90894 45.1988 9.90894 45.1988 9.83387C45.2738 9.5336 45.2738 9.3084 45.3489 9.00813C45.424 8.33252 45.499 7.65691 45.5741 6.90623C45.7242 6.75609 45.8744 6.68103 46.0245 6.53089C46.6251 6.08049 47.2256 5.63008 47.9012 5.32981C48.0514 5.47994 48.2766 5.47994 48.4267 5.47994C48.8771 5.47994 49.1774 4.8794 49.6278 4.95447C49.7028 4.95447 49.853 5.02954 49.928 5.10461L50.0031 4.95447C49.7779 4.57913 49.4776 4.27886 49.0272 4.05366C48.2015 3.75339 47.4508 3.82845 47.3007 4.20379C47.2256 4.429 47.3007 4.72927 47.4508 4.8794C46.8503 5.32981 46.1747 5.78021 45.6492 6.23062C45.6492 5.85528 45.6492 5.40488 45.6492 5.02954C45.6492 4.20379 45.499 3.37805 45.424 2.62737C45.3489 2.25203 45.2738 1.95176 45.1988 1.65149C45.424 1.65149 45.7243 1.50135 45.7993 1.27615C45.9495 0.825745 45.2738 0 44.6733 0C44.2229 0 43.9226 0.600542 43.4722 0.525474C43.3971 0.525474 43.247 0.450406 43.1719 0.375339L43.0969 0.525474C43.3221 0.900813 43.6224 1.20108 44.0728 1.42629C44.2229 1.50135 44.373 1.50135 44.5232 1.57642C44.5982 1.80163 44.6733 2.1019 44.6733 2.3271C44.8985 3.60325 45.0486 4.8794 45.0486 6.15555C45.0486 6.30569 45.0486 6.53089 45.0486 6.68103C45.0486 6.83116 45.0486 6.90623 45.0486 6.9813C45.0486 7.05637 45.0486 7.2065 45.0486 7.35664C45.0486 8.10731 44.9736 8.78292 44.8234 9.5336L44.298 9.15826L43.7725 8.78292L43.3221 8.48265L42.1961 7.73198C42.4963 8.03225 42.7966 8.40759 43.0969 8.70786C43.247 8.85799 43.3221 9.00813 43.3972 9.15826L43.4722 9.23333L43.8476 9.38347L43.7725 9.60867C44.0728 9.90894 44.298 10.2843 44.5232 10.5845C44.6733 10.7347 44.7484 10.8848 44.8234 11.035C45.424 11.7856 45.9495 12.6114 46.4749 13.4371C46.7001 13.7374 46.8503 14.0377 47.0755 14.3379C47.6009 15.2387 48.1264 16.2146 48.5768 17.1905C48.6519 17.3406 48.727 17.5658 48.802 17.716C48.8771 17.8661 48.8771 17.9412 48.9522 18.0163C49.1023 18.3165 49.1774 18.6168 49.3275 18.842C49.4776 19.0672 49.5527 19.4425 49.7028 19.7428C49.7028 19.8179 49.7779 19.968 49.7779 20.0431C50.1532 21.019 50.4535 22.0699 50.7538 23.1209C50.8289 23.3461 50.9039 23.6463 50.979 23.8715C51.2042 24.9225 51.4294 25.9734 51.5795 27.0244C51.6546 27.7 51.7297 28.4507 51.8047 29.1263C51.8047 29.3515 51.8047 29.5767 51.8798 29.8019C51.8798 30.1022 51.8798 30.4775 51.9549 30.7778C51.9549 31.3032 51.9549 31.7536 51.9549 32.2791C51.9549 33.0298 51.8798 33.7054 51.8798 34.381C51.8047 35.5821 51.6546 36.7081 51.4294 37.8341C51.2042 38.9602 50.979 40.0862 50.6036 41.1371C50.3034 42.0379 50.0031 43.0138 49.6278 43.9146L49.4776 44.29C49.0272 45.3409 48.5768 46.3919 48.0514 47.3677C47.5259 48.3436 46.9253 49.3946 46.2497 50.2954C45.5741 51.2713 44.8985 52.1721 44.0728 53.0729C43.7725 53.3732 43.5473 53.6734 43.247 53.9737C42.7215 54.5742 42.121 55.0997 41.5205 55.7003C40.6196 56.6011 39.6438 57.4268 38.5928 58.2526C38.2175 58.5528 37.8421 58.778 37.4668 59.0032C37.9923 59.829 38.2926 60.8049 38.3676 61.7807C38.4427 62.9818 38.4427 64.1829 38.2175 65.384L38.2925 65.4591C38.4427 65.384 38.5928 65.3089 38.743 65.2339C39.869 64.6333 40.9199 63.9577 41.9709 63.2821C42.8717 62.6816 43.7725 61.9309 44.6733 61.2553L44.8234 60.8049L45.0486 60.8799C46.8503 59.3035 48.5018 57.5019 50.0031 55.5501C50.6787 54.6493 51.3543 53.6734 51.8798 52.6975C52.4804 51.7217 53.0058 50.7458 53.4562 49.6948C53.6814 49.1694 53.9817 48.5688 54.2069 47.9683C54.4321 47.3677 54.5822 46.9924 54.7324 46.542C55.1077 45.491 55.408 44.365 55.6332 43.239C55.8584 42.113 56.0836 40.987 56.2337 39.7859C56.3839 38.5848 56.4589 37.3837 56.4589 36.2577C56.4589 35.1317 56.4589 33.7805 56.3839 32.5794L56.0836 32.4293L56.3839 31.7537C56.3088 30.7027 56.1587 29.7268 56.0085 28.7509C55.7833 27.3997 55.4831 26.0485 55.1077 24.7724L54.8074 24.6973L54.9576 24.3219L55.0327 24.6222C55.5581 23.6463 56.1587 22.6705 56.7592 21.8447C57.1346 21.3192 57.4348 20.9439 57.7351 20.5686C58.0354 20.1932 58.2606 19.968 58.5608 19.6677C58.711 19.5176 58.9362 19.2924 59.0863 19.1423L59.2364 18.9921C59.912 18.3916 60.5877 17.8661 61.3383 17.4157C61.6386 17.2656 61.9389 17.0404 62.2391 16.9653L62.3142 16.8152L62.4644 16.8902C63.8156 16.2146 65.2419 15.7642 66.6681 15.539C66.7432 15.6892 66.8183 15.8393 66.9684 15.9894C67.0435 16.0645 67.1185 16.0645 67.1185 16.0645C67.4188 16.1396 67.7191 15.8393 67.8692 15.3889C68.2446 15.1637 68.3947 14.8634 68.3947 14.6382Z" fill="#008000"/>
<path d="M85.5278 29V17.32H87.7998V29H85.5278ZM77.8638 29V17.32H80.1358V29H77.8638ZM79.7198 24.152V22.152H85.9438V24.152H79.7198ZM95.1723 29.304C94.0843 29.304 93.167 29.096 92.4203 28.68C91.6737 28.264 91.103 27.6827 90.7083 26.936C90.3243 26.1787 90.1323 25.2933 90.1323 24.28V17.32H92.4043V24.408C92.4043 24.9627 92.511 25.4533 92.7243 25.88C92.9377 26.296 93.247 26.6213 93.6523 26.856C94.0683 27.08 94.575 27.192 95.1723 27.192C95.759 27.192 96.255 27.08 96.6603 26.856C97.0763 26.6213 97.3857 26.296 97.5883 25.88C97.8017 25.464 97.9083 24.9733 97.9083 24.408V17.32H100.18V24.28C100.18 25.2933 99.9883 26.1787 99.6043 26.936C99.231 27.6827 98.671 28.264 97.9243 28.68C97.1777 29.096 96.2603 29.304 95.1723 29.304ZM102.521 29V17.32H105.625L108.553 24.296H108.841L111.753 17.32H114.905V29H112.649V19.032L112.937 19.064L109.785 26.616H107.465L104.297 19.064L104.601 19.032V29H102.521ZM117.466 29V17.32H120.57L123.498 24.296H123.786L126.698 17.32H129.85V29H127.594V19.032L127.882 19.064L124.73 26.616H122.41L119.242 19.064L119.546 19.032V29H117.466ZM132.444 29V17.32H134.716V29H132.444ZM137.311 29V17.32H141.039L145.951 27.112H146.479L146.159 27.4V17.32H148.303V29H144.559L139.647 19.208H139.103L139.423 18.92V29H137.311ZM156.306 29.304C155.303 29.304 154.418 29.1387 153.65 28.808C152.892 28.4667 152.252 28.0133 151.73 27.448C151.218 26.872 150.828 26.2267 150.562 25.512C150.306 24.7867 150.178 24.0347 150.178 23.256V22.904C150.178 22.168 150.306 21.448 150.562 20.744C150.818 20.04 151.191 19.4053 151.682 18.84C152.183 18.2747 152.796 17.8267 153.522 17.496C154.258 17.1547 155.1 16.984 156.05 16.984C157.074 16.984 157.98 17.176 158.77 17.56C159.559 17.9333 160.194 18.4613 160.674 19.144C161.154 19.816 161.436 20.6 161.522 21.496H159.234C159.159 20.9947 158.972 20.568 158.674 20.216C158.375 19.8533 157.996 19.576 157.538 19.384C157.09 19.192 156.594 19.096 156.05 19.096C155.506 19.096 155.01 19.192 154.562 19.384C154.124 19.576 153.751 19.848 153.442 20.2C153.132 20.552 152.892 20.9733 152.722 21.464C152.562 21.9547 152.482 22.4987 152.482 23.096C152.482 23.7467 152.572 24.328 152.754 24.84C152.935 25.352 153.191 25.7893 153.522 26.152C153.852 26.504 154.252 26.776 154.722 26.968C155.191 27.1493 155.719 27.24 156.306 27.24C157.084 27.24 157.767 27.08 158.354 26.76C158.94 26.4293 159.367 26.0027 159.634 25.48L159.234 27.32V24.312H161.33V26.904C160.828 27.6613 160.146 28.2533 159.282 28.68C158.418 29.096 157.426 29.304 156.306 29.304ZM155.938 24.76V23.064H162.306V24.76H155.938ZM165.762 29.08V27.256H168.69C169.224 27.256 169.629 27.112 169.906 26.824C170.184 26.5253 170.322 26.12 170.322 25.608C170.322 25.096 170.184 24.7013 169.906 24.424C169.629 24.136 169.224 23.992 168.69 23.992H165.762V22.6H168.53C169.309 22.6 170.002 22.696 170.61 22.888C171.229 23.0693 171.709 23.3787 172.05 23.816C172.402 24.2533 172.578 24.84 172.578 25.576V25.8C172.578 26.4933 172.424 27.0853 172.114 27.576C171.816 28.056 171.362 28.4293 170.754 28.696C170.157 28.952 169.416 29.08 168.53 29.08H165.762ZM163.858 29.08V17.24H166.082V29.08H163.858ZM165.762 23.624V22.232H168.258C168.802 22.232 169.202 22.088 169.458 21.8C169.714 21.512 169.842 21.128 169.842 20.648C169.842 20.168 169.714 19.784 169.458 19.496C169.202 19.208 168.802 19.064 168.258 19.064H165.762V17.24H168.05C169.373 17.24 170.376 17.5173 171.058 18.072C171.752 18.6267 172.098 19.4213 172.098 20.456V20.68C172.098 21.4053 171.922 21.9867 171.57 22.424C171.229 22.8507 170.754 23.16 170.146 23.352C169.538 23.5333 168.84 23.624 168.05 23.624H165.762ZM174.586 29V17.32H176.858V29H174.586ZM179.453 29V17.24H181.725V29H179.453ZM186.589 29L183.005 23.912H185.549L189.245 29H186.589ZM181.053 25.096V23.256H184.029C184.445 23.256 184.802 23.1707 185.101 23C185.41 22.8293 185.65 22.5893 185.821 22.28C185.991 21.9707 186.077 21.6187 186.077 21.224C186.077 20.8187 185.991 20.4613 185.821 20.152C185.65 19.8427 185.41 19.6027 185.101 19.432C184.802 19.2613 184.445 19.176 184.029 19.176H181.053V17.24H183.789C184.727 17.24 185.538 17.3787 186.221 17.656C186.914 17.9333 187.447 18.3547 187.821 18.92C188.194 19.4853 188.381 20.1947 188.381 21.048V21.304C188.381 22.168 188.189 22.8773 187.805 23.432C187.431 23.9867 186.903 24.4027 186.221 24.68C185.538 24.9573 184.727 25.096 183.789 25.096H181.053ZM192.6 29.064V26.952H195.016C195.624 26.952 196.163 26.8613 196.632 26.68C197.112 26.488 197.518 26.2213 197.848 25.88C198.179 25.5387 198.43 25.1387 198.6 24.68C198.782 24.2107 198.872 23.6933 198.872 23.128C198.872 22.5413 198.782 22.0187 198.6 21.56C198.43 21.0907 198.179 20.6907 197.848 20.36C197.518 20.0293 197.112 19.7787 196.632 19.608C196.163 19.4373 195.624 19.352 195.016 19.352H192.6V17.24H194.872C195.928 17.24 196.851 17.3947 197.64 17.704C198.43 18.0133 199.086 18.44 199.608 18.984C200.131 19.5173 200.52 20.1307 200.776 20.824C201.043 21.5067 201.176 22.216 201.176 22.952V23.304C201.176 24.008 201.043 24.7013 200.776 25.384C200.52 26.0667 200.131 26.6853 199.608 27.24C199.086 27.7947 198.43 28.2373 197.64 28.568C196.851 28.8987 195.928 29.064 194.872 29.064H192.6ZM190.648 29.064V17.24H192.92V29.064H190.648ZM206.812 29.304C205.778 29.304 204.903 29.1387 204.188 28.808C203.484 28.4773 202.946 28.024 202.572 27.448C202.199 26.8613 202.012 26.2 202.012 25.464H204.236C204.236 25.7733 204.322 26.0773 204.492 26.376C204.663 26.664 204.935 26.8987 205.308 27.08C205.692 27.2613 206.194 27.352 206.812 27.352C207.367 27.352 207.831 27.272 208.204 27.112C208.578 26.952 208.855 26.744 209.036 26.488C209.218 26.2213 209.308 25.9227 209.308 25.592C209.308 25.176 209.132 24.8453 208.78 24.6C208.428 24.344 207.884 24.184 207.148 24.12L206.124 24.04C205.004 23.944 204.108 23.5973 203.436 23C202.775 22.392 202.444 21.592 202.444 20.6C202.444 19.8533 202.62 19.2133 202.972 18.68C203.324 18.136 203.815 17.72 204.444 17.432C205.084 17.1333 205.831 16.984 206.684 16.984C207.57 16.984 208.332 17.1387 208.972 17.448C209.612 17.7573 210.108 18.1947 210.46 18.76C210.812 19.3147 210.988 19.9707 210.988 20.728H208.764C208.764 20.408 208.684 20.1147 208.524 19.848C208.375 19.5707 208.146 19.352 207.836 19.192C207.538 19.0213 207.154 18.936 206.684 18.936C206.236 18.936 205.863 19.0107 205.564 19.16C205.266 19.3093 205.042 19.512 204.892 19.768C204.743 20.024 204.668 20.3013 204.668 20.6C204.668 20.9627 204.802 21.2827 205.068 21.56C205.335 21.8267 205.756 21.9813 206.332 22.024L207.356 22.12C208.188 22.184 208.919 22.36 209.548 22.648C210.178 22.936 210.663 23.3253 211.004 23.816C211.356 24.3067 211.532 24.8987 211.532 25.592C211.532 26.328 211.34 26.9787 210.956 27.544C210.572 28.0987 210.023 28.5307 209.308 28.84C208.604 29.1493 207.772 29.304 206.812 29.304ZM83.1278 49.304C82.0718 49.304 81.1652 49.1173 80.4078 48.744C79.6505 48.3707 79.0318 47.8853 78.5518 47.288C78.0825 46.6907 77.7358 46.04 77.5118 45.336C77.2878 44.632 77.1758 43.9547 77.1758 43.304V42.952C77.1758 42.2267 77.2878 41.512 77.5118 40.808C77.7465 40.104 78.1038 39.464 78.5838 38.888C79.0638 38.312 79.6718 37.8533 80.4078 37.512C81.1545 37.16 82.0345 36.984 83.0478 36.984C84.1038 36.984 85.0212 37.176 85.7998 37.56C86.5892 37.9333 87.2185 38.4667 87.6878 39.16C88.1572 39.8427 88.4398 40.6427 88.5358 41.56H86.2478C86.1625 41.0267 85.9705 40.5787 85.6718 40.216C85.3838 39.8427 85.0158 39.5653 84.5678 39.384C84.1198 39.192 83.6132 39.096 83.0478 39.096C82.4718 39.096 81.9598 39.1973 81.5118 39.4C81.0638 39.592 80.6905 39.8693 80.3918 40.232C80.0932 40.5947 79.8638 41.0213 79.7038 41.512C79.5545 42.0027 79.4798 42.5467 79.4798 43.144C79.4798 43.72 79.5545 44.2533 79.7038 44.744C79.8638 45.2347 80.0985 45.6667 80.4078 46.04C80.7172 46.4027 81.0958 46.6853 81.5438 46.888C82.0025 47.0907 82.5305 47.192 83.1278 47.192C84.0025 47.192 84.7385 46.9787 85.3358 46.552C85.9438 46.1147 86.3118 45.5067 86.4398 44.728H88.7278C88.6212 45.56 88.3385 46.3227 87.8798 47.016C87.4212 47.7093 86.7918 48.264 85.9918 48.68C85.1918 49.096 84.2372 49.304 83.1278 49.304ZM89.0637 49L93.0477 37.32H96.7597L100.856 49H98.5197L95.0477 38.872L95.8637 39.224H93.8637L94.6957 38.872L91.3357 49H89.0637ZM91.8477 45.896L92.5677 43.976H97.3037L98.0077 45.896H91.8477ZM102.271 49V37.24H104.543V49H102.271ZM109.407 49L105.823 43.912H108.367L112.063 49H109.407ZM103.871 45.096V43.256H106.847C107.263 43.256 107.62 43.1707 107.919 43C108.228 42.8293 108.468 42.5893 108.639 42.28C108.809 41.9707 108.895 41.6187 108.895 41.224C108.895 40.8187 108.809 40.4613 108.639 40.152C108.468 39.8427 108.228 39.6027 107.919 39.432C107.62 39.2613 107.263 39.176 106.847 39.176H103.871V37.24H106.607C107.545 37.24 108.356 37.3787 109.039 37.656C109.732 37.9333 110.265 38.3547 110.639 38.92C111.012 39.4853 111.199 40.1947 111.199 41.048V41.304C111.199 42.168 111.007 42.8773 110.623 43.432C110.249 43.9867 109.721 44.4027 109.039 44.68C108.356 44.9573 107.545 45.096 106.607 45.096H103.871ZM113.466 49V37.32H115.69V49H113.466ZM115.37 49V47.08H120.666V49H115.37ZM115.37 44.024V42.104H120.25V44.024H115.37ZM115.37 39.24V37.32H120.538V39.24H115.37ZM125.843 49V37.32H128.115V49H125.843ZM130.709 49V37.32H134.437L139.349 47.112H139.877L139.557 47.4V37.32H141.701V49H137.957L133.045 39.208H132.501L132.821 38.92V49H130.709ZM144.296 49V37.32H146.568V49H144.296ZM151.467 49V39H153.739V49H151.467ZM148.091 39.32V37.32H157.115V39.32H148.091ZM158.641 49V37.32H160.913V49H158.641ZM162.356 49L166.34 37.32H170.052L174.148 49H171.812L168.34 38.872L169.156 39.224H167.156L167.988 38.872L164.628 49H162.356ZM165.14 45.896L165.86 43.976H170.596L171.3 45.896H165.14ZM176.882 49V39H179.154V49H176.882ZM173.506 39.32V37.32H182.53V39.32H173.506ZM184.056 49V37.32H186.328V49H184.056ZM191.547 49L187.819 37.32H190.171L193.259 47.432L192.587 47.112H194.315L193.627 47.432L196.475 37.32H198.747L195.291 49H191.547ZM200.259 49V37.32H202.483V49H200.259ZM202.163 49V47.08H207.459V49H202.163ZM202.163 44.024V42.104H207.043V44.024H202.163ZM202.163 39.24V37.32H207.331V39.24H202.163Z" fill="white"/>
</svg>
